<svg xmlns="http://www.w3.org/2000/svg" width="348.418" height="73.402"><g fill="#1A363C"><path d="M23.256 4.159L127.987.044a8.332 8.332 0 0 1 2.288.083 8.98 8.98 0 0 1 4.385 2.12c1.204 1.08 2.04 2.465 2.24 3.957a5.137 5.137 0 0 1-.077 1.803l-10.928 49.262c-.459 2.065-1.479 3.991-3.023 5.361-1.452 1.288-3.34 2.094-5.636 2.094l-18.527-.643.747-1.313 1.776.984 1.224-2.11 10.65.381c1.32 0 2.411-.464 3.253-1.212 1.03-.914 1.723-2.249 2.046-3.708l10.191-45.938c.066-.304.077-.604.037-.901-.109-.817-.588-1.6-1.28-2.222a5.366 5.366 0 0 0-2.631-1.275 4.364 4.364 0 0 0-1.26-.047L23.211 10.361a8.824 8.824 0 0 0-.667.093c-1.381.25-2.717.813-3.657 1.604-.819.687-1.313 1.551-1.186 2.511.013.101.027.181.039.237l9.06 39.396c.337 1.467 1.032 2.813 2.065 3.729.838.737 1.921 1.198 3.238 1.198l47.27 1.688c-.384.643-.756 1.261-.895 1.559l1.853 1.072-47.184-1.623c-2.287 0-4.164-.799-5.61-2.082l-.007-.006c-1.541-1.369-2.562-3.293-3.035-5.357l-9.714-42.249a5.242 5.242 0 0 1-.091-.475c-.263-1.972.661-3.671 2.208-4.967 1.418-1.188 3.386-2.024 5.394-2.389.348-.062.671-.11.964-.141z"/><path opacity=".5" d="M40.034 15.326l30.708-3.241a3.867 3.867 0 0 1 1.059.039 4.142 4.142 0 0 1 2.026.98c.558.499.944 1.14 1.036 1.83.036.271.027.552-.035.833L69.774 38.54c-.212.957-.684 1.853-1.397 2.481-.672.597-1.545.966-2.606.966H44.608c-1.058 0-1.925-.369-2.595-.963l-.002-.002c-.713-.633-1.185-1.523-1.404-2.479l-4.492-19.532a2.025 2.025 0 0 1-.041-.225c-.122-.912.306-1.693 1.021-2.297.655-.549 1.565-.937 2.494-1.104.161-.023.309-.045.445-.059zm28.615-.155l-28.636 3.022a4.416 4.416 0 0 0-.308.043c-.64.116-1.257.375-1.692.74-.379.313-.607.717-.548 1.161a.805.805 0 0 0 .019.104l4.188 18.22c.156.683.478 1.304.955 1.728.388.344.889.557 1.498.557H63.86c.611 0 1.115-.215 1.505-.561.477-.422.796-1.039.946-1.715l4.712-21.241a1.21 1.21 0 0 0 .018-.418c-.051-.378-.271-.738-.592-1.025a2.491 2.491 0 0 0-1.216-.592 2.117 2.117 0 0 0-.584-.023z"/><path d="M78.983 53.307c-.162.277-.322.429-.526.786l-1.563 2.709c.288.166.585.325.87.5.318.188.454.337.832.555-1.048 1.813-1.937 3.479-2.979 5.286 1.48.854 2.832 1.708 4.356 2.587l8.938 5.161c1.542.89 2.977 1.646 4.474 2.511.257-.445.325-.802.71-1.283.325-.406.861-1.46 1.197-2.021.177-.302.253-.313.431-.611.295-.492.422-.859.727-1.389.286.417 1.281.733 1.733 1 1.024-1.773 2.019-3.37 3.057-5.174.536.163 1.028.563 1.497.807.26.135.271.132.428-.115.402-.633.803-1.406 1.186-2.068.781-1.354 1.563-2.709 2.346-4.063l3.439-5.958c-.479-.278-1.41-.729-1.775-1.071l-7.126 12.313-1.776-.989-3.02 5.306-1.817-1.025-2.043 3.491-14.098-8.172c.322-.688 1.897-3.104 1.97-3.55l-1.719-1.013c.524-.908 1.055-1.814 1.575-2.729.52-.907.549-.739-.054-1.097-.419-.241-.829-.493-1.27-.684zm5.362-13.427l-1.025 1.775 1.753 1.033-.977 1.727 1.742 1.006 11.19-19.413-1.722-.976c-.014.008-.024.009-.039.029l-.074.063c-.011.018-.023.026-.035.042l-9.04 15.651c-.638-.363-1.14-.614-1.773-.937zm16.306-11.758L91.458 43.98l1.742 1.018 4.063-7.043c.385.117 3.306 1.799 3.556 2.061.384.396 3.722 2.196 4.472 2.635.013-.093.147-.061-.254-.302l-3.529-2.027c-.847-.481-.78-.148.351-2.107L99.2 36.677c-.346-.201-.453-.342-.832-.561l4.034-6.988c-.451-.261-.733-.531-1.324-.837-.246-.121-.214-.055-.427-.169z"/><path d="M105.112 44.802l1.022-1.741c-.27-.155-.559-.371-.845-.416-.75-.438-4.088-2.239-4.472-2.635l-4.083 7.021 1.765 1.021 3.063-5.291 3.55 2.041zm-26.344-3.383c-.151.25-.214.242-.554.834-.177.312-.354.613-.531.921l1.679.975c-.166.547-1.646 3.102-1.925 3.584l1.734 1-1.533 2.649c-.22.377-.261.578-.446.898l1.714.989c.722-.94 1.544-2.452 2.108-3.536l-1.733-1.031 2.019-3.515-1.753-1.05.996-1.769c-.576-.337-1.15-.726-1.775-.949zm.015-.065l2.033-3.497 3.529 2.021.56-.836c.151-.309.261-.569.481-.957l-4.713-2.721c-.757-.443-.57-.513-1.182.546l-2.253 3.9c-.233.392-.408.474-.052.7.34.22 1.311.846 1.597.844zm28.748 7.263c.272-.012.054.08.272-.182.014-.021.131-.238.154-.277.067-.434.465-.931.696-1.331l-3.542-2.021-4.077 7.069 1.736 1.006 3.076-5.271c.412.152 1.365.708 1.685 1.007zm-6.854-20.624c.315-.545.759-1.193.916-1.711l-3.482-2.01-1 1.708 3.566 2.013z"/><path d="M107.531 48.617c.088.374-.854 1.322-.844 1.719.005.212 1.44.847 1.671 1.113.365.344 1.296.793 1.775 1.071l-3.439 5.958 3.502-6.066-1.733-1c.16-.272.209-.492.415-.844.179-.307.354-.614.532-.922-1.927-1.112-1.827-.834-1.452-1.488-.023.039-.141.26-.154.277-.219.262-.001.17-.273.182zM95.307 25.033l1.722.976-11.19 19.413-1.742-1.006.064.082c.015.019 1.13.801 1.69.965L97.089 26.04l3.528 2.017c-2.921 5.048-5.963 10.392-8.932 15.401-.105.184-.232.338-.228.521l9.193-15.858.025-.129-3.566-2.013 1-1.708c-.269.188-.815 1.322-1.04 1.711l-1.621-.925c-.117-.041-.064-.025-.141-.024zm71.199 19.308h-6.022l4.965-17.146-10.199 17.146h-6.195l-1.111-17.394-4.243 17.394h-6.195l6.993-26.099h8.454l1.164 18.313 10.93-18.313h8.454l-6.995 26.099zm22.519 0h-13.467c-1.875 0-3.223-.502-4.042-1.506-.85-.979-1.017-2.403-.512-4.29.604-2.252 1.646-3.872 3.128-4.852 1.481-.98 3.585-1.47 6.315-1.47h5.943c.252-.938.152-1.607-.281-2.021-.457-.376-1.465-.562-3.012-.562h-8.483l1.258-4.696h10.319c2.623 0 4.455.609 5.492 1.822 1.043 1.213 1.229 3.053.565 5.521l-3.223 12.054zm-4.64-4.625l.777-2.899h-5.264c-1.057 0-1.76.102-2.125.305-.371.203-.646.627-.813 1.273-.128.478-.112.819.049 1.045.095.096.285.162.583.21.299.048.688.066 1.164.066h5.629zm25.655 4.625h-5.735l3.116-11.633c.331-1.232.368-2.02.106-2.355-.301-.31-1.008-.454-2.104-.454h-3.45l-3.871 14.443h-5.734l5.195-19.395h9.535c2.916 0 4.844.567 5.778 1.703.938 1.142 1.065 2.97.394 5.503l-3.23 12.188zm20.864 0h-5.771l3.122-11.646c.31-1.153.325-1.906.041-2.252a1.634 1.634 0 0 0-.706-.442c-.311-.089-.77-.138-1.361-.138l-3.427.036-3.87 14.443h-5.736l6.992-26.099h5.736l-1.797 6.704h3.837c2.867 0 4.784.562 5.752 1.679.966 1.123 1.107 2.958.423 5.52l-3.235 12.195zm22.012 0h-13.468c-1.87 0-3.218-.502-4.042-1.506-.85-.979-1.016-2.403-.512-4.29.604-2.252 1.646-3.872 3.129-4.852 1.479-.98 3.584-1.47 6.313-1.47h5.945c.251-.938.154-1.607-.283-2.021-.455-.376-1.463-.562-3.01-.562h-8.484l1.26-4.696h10.316c2.624 0 4.456.609 5.493 1.822 1.043 1.213 1.229 3.053.569 5.521l-3.226 12.054zm-4.641-4.625l.773-2.899h-5.264c-1.057 0-1.764.102-2.125.305-.371.203-.645.627-.813 1.273-.131.478-.113.819.049 1.045.096.096.285.162.582.21.299.048.688.066 1.164.066h5.634zm13.86 4.625h-5.951l6.994-26.099h5.95l-6.993 26.099zm13.442 0h-5.056l1.422-5.307h5.056l-1.422 5.307zm18.564 0h-7.009c-.856 0-1.632-.049-2.304-.144-.66-.093-1.273-.206-1.816-.4-.979-.353-1.818-.972-2.492-1.817-.313-.396-.533-.902-.729-1.475-.191-.553-.396-1.145-.49-1.782-.09-.616-.08-1.261-.029-1.912.049-.643.188-1.354.396-2.121a14.125 14.125 0 0 1 1.813-4.081c.813-1.25 1.783-2.411 2.996-3.375 1.004-.801 2.187-1.325 3.438-1.703 1.246-.377 2.719-.58 4.422-.58h7.008l-1.306 4.875h-5.596c-1.159 0-2.123.056-2.854.209a4.572 4.572 0 0 0-1.838.86c-.976.734-1.726 1.986-2.205 3.794-.269 1.002-.301 1.854-.16 2.557.138.682.322 1.457.976 1.715l1.027.406c.279.111.612.08.928.103.334.021.849.035 1.533.035h5.592l-1.301 4.836zm24.015-9.727c-.811 3.032-2.389 5.46-4.719 7.283-2.322 1.813-5.026 2.729-8.117 2.729-3.105 0-5.316-.922-6.676-2.729-1.354-1.796-1.642-4.214-.815-7.283.804-3.004 2.383-5.426 4.712-7.26 2.303-1.813 5.01-2.73 8.141-2.73 3.09 0 5.313.898 6.664 2.695 1.358 1.808 1.625 4.245.81 7.295zm-5.951 0c.429-1.61.344-2.863-.174-3.788-.498-.89-1.362-1.362-2.684-1.362-1.313 0-2.435.479-3.412 1.362-.94.854-1.67 2.104-2.119 3.788-.23.864-.325 1.597-.323 2.188.002.626.125 1.186.397 1.656.506.889 1.402 1.327 2.688 1.327 1.316 0 2.439-.46 3.4-1.327 1.03-.919 1.786-2.193 2.227-3.844zm32.538 9.727h-5.771l3.104-11.598c.314-1.188.4-2.017.134-2.396-.265-.369-1.003-.534-2.08-.513l-2.233.059-3.871 14.443h-5.844l3.871-14.443h-4.771l-3.871 14.443h-5.771l5.193-19.395h19.016c2.768 0 4.656.569 5.66 1.703 1.008 1.14 1.176 2.973.496 5.503l-3.262 12.194z"/><path opacity=".3" d="M6.553 25.047l50.538-5.334a6.542 6.542 0 0 1 1.742.063c1.26.22 2.438.808 3.337 1.613.917.817 1.553 1.876 1.704 3.011.06.448.045.909-.058 1.372l-8.744 22.963c-.35 1.576-1.126 3.041-2.301 4.084-1.105.979-2.542 1.59-4.289 1.59H13.654c-1.74 0-3.169-.604-4.27-1.585l-.004-.002c-1.174-1.043-1.949-2.506-2.311-4.078L.103 31.114a3.901 3.901 0 0 1-.068-.361c-.201-1.501.503-2.794 1.681-3.775 1.078-.903 2.576-1.542 4.104-1.818.266-.053.511-.09.733-.113zm47.096-.253L6.519 29.77c-.188.02-.359.043-.507.065-1.052.19-2.068.618-2.784 1.223-.624.521-1 1.18-.902 1.906.011.076.021.142.029.185l6.468 15.46c.257 1.117.786 2.138 1.572 2.836.638.563 1.462.916 2.465.916h32.48c1.005 0 1.835-.354 2.476-.922.783-.696 1.311-1.711 1.558-2.822l8.183-20.434c.051-.231.059-.463.028-.689-.084-.622-.447-1.214-.975-1.688a4.1 4.1 0 0 0-2.001-.979 3.634 3.634 0 0 0-.96-.033z"/><path d="M148.935 10.044l-1.074 4.017h-1.445l2.876-10.733h3.166c.679 0 1.249.08 1.708.237.46.152.814.379 1.066.668.251.29.404.641.457 1.05.053.41.01.866-.125 1.37a4.439 4.439 0 0 1-.63 1.373 4.4 4.4 0 0 1-1.054 1.073 4.96 4.96 0 0 1-1.442.694 6.04 6.04 0 0 1-1.781.252l-1.722-.001zm.31-1.153h1.721c.415 0 .796-.06 1.143-.165.346-.11.652-.27.919-.461a2.885 2.885 0 0 0 1.083-1.612c.184-.684.117-1.218-.202-1.602-.318-.389-.905-.576-1.759-.576h-1.722l-1.183 4.416zm10.866-2.537c.554 0 1.031.092 1.428.272.397.188.706.446.928.786.221.339.351.749.389 1.23.038.479-.024 1.021-.183 1.611a5.913 5.913 0 0 1-.684 1.615 5.02 5.02 0 0 1-1.047 1.229 4.398 4.398 0 0 1-1.348.778 4.463 4.463 0 0 1-1.575.272c-.554 0-1.028-.092-1.426-.272a2.173 2.173 0 0 1-.934-.778c-.224-.341-.355-.749-.397-1.229-.041-.479.019-1.018.179-1.615a5.859 5.859 0 0 1 .688-1.611c.299-.482.65-.896 1.056-1.23a4.601 4.601 0 0 1 1.354-.786 4.561 4.561 0 0 1 1.572-.272zm-1.812 6.766c.748 0 1.375-.252 1.878-.753.504-.501.876-1.203 1.117-2.104.242-.903.246-1.606.013-2.113-.234-.504-.726-.756-1.474-.756-.379 0-.727.063-1.041.19-.313.134-.596.317-.849.563s-.474.547-.661.903a5.752 5.752 0 0 0-.464 1.21 4.88 4.88 0 0 0-.184 1.208c-.003.354.057.648.179.896s.305.427.549.563c.245.128.557.193.937.193zm6.048-6.654h1.048c.11 0 .192.027.248.082.055.06.085.12.09.195l.143 4.885c-.008.185-.018.354-.027.521-.01.167-.024.334-.046.507.086-.172.176-.339.271-.507l.297-.521 2.919-4.916a.626.626 0 0 1 .183-.187.447.447 0 0 1 .255-.075h.576c.1 0 .175.025.227.075.052.05.08.112.085.187l.247 4.916c.008.179.012.352.009.521-.003.169-.008.336-.013.504a10.677 10.677 0 0 1 .498-1.022l2.791-4.885a.565.565 0 0 1 .195-.197.5.5 0 0 1 .269-.078h1.003l-4.489 7.593h-1.055c-.13 0-.197-.085-.202-.255l-.297-5.147a2.385 2.385 0 0 1-.004-.349l.019-.352c-.057.115-.112.232-.17.354-.057.12-.12.232-.191.352l-3.076 5.145c-.101.17-.226.255-.375.255h-1.003l-.425-7.601zm15.49-.12c.454 0 .853.072 1.195.229.342.153.616.372.819.659.197.287.321.644.371 1.063.043.427-.013.903-.154 1.445-.055.209-.114.354-.18.419-.063.07-.156.105-.281.105h-5.045c-.119.479-.166.896-.146 1.252.021.354.106.646.255.891.146.237.352.414.605.531.259.118.563.177.927.177.334 0 .634-.04.896-.117s.494-.162.689-.252a6.49 6.49 0 0 0 .506-.25c.141-.08.249-.117.334-.117.109 0 .186.042.223.132l.249.487a4.086 4.086 0 0 1-.729.521c-.27.146-.546.267-.833.357a5.355 5.355 0 0 1-.87.212c-.292.052-.575.07-.852.07-.522 0-.979-.09-1.375-.267a2.223 2.223 0 0 1-.938-.778c-.229-.342-.367-.766-.414-1.27-.044-.509.021-1.083.197-1.739a5.41 5.41 0 0 1 .644-1.482c.283-.459.625-.854 1.021-1.19s.837-.604 1.326-.793a4.146 4.146 0 0 1 1.56-.295zm-.235.988c-.645 0-1.199.188-1.67.561-.468.364-.834.883-1.101 1.54h4.124a2.71 2.71 0 0 0 .1-.851 1.404 1.404 0 0 0-.195-.664 1.1 1.1 0 0 0-.481-.434 1.795 1.795 0 0 0-.777-.152zm3.011 6.722l2.033-7.595h.765c.146 0 .235.029.274.092.041.058.051.155.027.302l-.242 1.257c.405-.563.85-.998 1.313-1.31.466-.314.953-.476 1.469-.476.209 0 .395.025.549.072.157.05.297.117.417.205l-.439.997c-.068.125-.162.188-.281.188-.068 0-.171-.021-.305-.068-.131-.052-.326-.069-.588-.069-.463 0-.89.14-1.273.421s-.759.691-1.111 1.228l-1.271 4.763-1.337-.007zm11.101-7.71c.454 0 .853.072 1.196.229.343.152.615.372.818.659s.326.644.371 1.063c.043.427-.013.903-.152 1.445-.057.209-.116.354-.18.419-.063.07-.158.105-.283.105h-5.045c-.119.479-.166.896-.146 1.252.021.354.106.646.261.891.146.237.348.414.604.531.258.118.564.177.926.177.334 0 .635-.04.896-.117.263-.077.492-.162.688-.252.198-.09.367-.172.507-.25.14-.08.247-.117.332-.117.109 0 .187.042.224.132l.246.487a4.086 4.086 0 0 1-.729.521c-.27.146-.547.267-.834.357a5.344 5.344 0 0 1-.869.212c-.293.052-.576.07-.852.07-.522 0-.98-.09-1.375-.267a2.223 2.223 0 0 1-.938-.778c-.229-.342-.366-.766-.413-1.27-.045-.509.021-1.083.196-1.739a5.41 5.41 0 0 1 .644-1.482c.284-.459.625-.854 1.021-1.19s.837-.604 1.326-.793a4.15 4.15 0 0 1 1.56-.295zm-.235.988c-.645 0-1.199.188-1.668.561-.47.364-.836.883-1.103 1.54h4.125c.082-.313.116-.596.099-.851a1.404 1.404 0 0 0-.195-.664 1.102 1.102 0 0 0-.48-.434 1.802 1.802 0 0 0-.778-.152zm8.349 6.722c-.189 0-.285-.098-.285-.277l.127-.92a5.89 5.89 0 0 1-1.363.945 3.48 3.48 0 0 1-1.531.354c-.434 0-.805-.085-1.11-.252s-.545-.412-.708-.736c-.162-.322-.246-.729-.251-1.215-.005-.479.073-1.041.246-1.672a6.05 6.05 0 0 1 .644-1.562c.278-.481.606-.898.984-1.258a4.383 4.383 0 0 1 1.251-.833c.459-.199.94-.306 1.459-.306.464 0 .84.08 1.127.237s.521.377.706.661l1.127-4.207h1.332l-2.956 11.031h-.795l-.004.01zm-2.322-.973c.436 0 .844-.1 1.225-.299a4.812 4.812 0 0 0 1.127-.846l.982-3.672c-.154-.33-.359-.563-.617-.694a1.98 1.98 0 0 0-.916-.2c-.709 0-1.32.252-1.836.759-.515.509-.896 1.228-1.146 2.158a5.571 5.571 0 0 0-.214 1.271c-.01.352.037.642.142.868.104.228.263.395.474.5.209.102.468.155.779.155zm8.288.973l2.956-11.033h1.34l-1.236 4.616a5.663 5.663 0 0 1 1.334-.938 3.272 3.272 0 0 1 1.488-.354c.439 0 .814.083 1.125.247.311.16.545.407.707.733.162.327.246.731.252 1.213.006.484-.076 1.038-.244 1.667a6.208 6.208 0 0 1-.645 1.564 5.48 5.48 0 0 1-.98 1.25c-.377.352-.795.629-1.256.831s-.947.304-1.455.304c-.49 0-.879-.095-1.17-.287a1.911 1.911 0 0 1-.682-.798l-.253.694c-.093.188-.231.287-.421.287l-.86.004zm5.163-6.647c-.434 0-.841.105-1.225.317a4.935 4.935 0 0 0-1.146.893l-.969 3.616c.148.324.355.554.611.686.26.138.563.2.922.2.711 0 1.32-.252 1.838-.756.515-.504.896-1.223 1.146-2.156.136-.494.203-.918.214-1.271.008-.354-.041-.646-.146-.873a.983.983 0 0 0-.476-.497c-.206-.107-.465-.159-.769-.159zm4.587 8.893a.892.892 0 0 1-.231.235c-.084.063-.191.089-.336.089h-.983l2.179-2.964-1.199-7.188h1.15c.111 0 .191.025.246.087.05.057.076.122.091.188l.729 4.838c.02.11.024.227.027.332.002.113-.001.229-.007.347.063-.115.132-.229.195-.347.063-.104.136-.225.212-.339l3.263-4.83a.617.617 0 0 1 .208-.195.455.455 0 0 1 .256-.08h1.063l-6.863 9.827zm6.128-3.067a1.25 1.25 0 0 1 .171-.367c.078-.115.171-.214.275-.302.104-.085.22-.152.349-.202s.258-.075.387-.075c.131 0 .246.025.352.075s.186.117.24.202a.65.65 0 0 1 .119.302.911.911 0 0 1-.024.367 1.31 1.31 0 0 1-.17.374c-.077.113-.175.21-.279.297-.104.084-.229.15-.354.197-.127.047-.256.067-.387.067s-.244-.021-.348-.067-.184-.112-.242-.197a.682.682 0 0 1-.113-.297.838.838 0 0 1 .024-.374zm1.504-5.614c.035-.13.094-.252.172-.367a1.6 1.6 0 0 1 .274-.302c.104-.085.221-.152.349-.202.129-.05.258-.075.387-.075.131 0 .246.025.352.075s.188.117.245.202a.598.598 0 0 1 .114.302.83.83 0 0 1-.023.367 1.215 1.215 0 0 1-.171.375 1.4 1.4 0 0 1-.279.297 1.225 1.225 0 0 1-.354.197 1.095 1.095 0 0 1-.386.073.82.82 0 0 1-.35-.073.548.548 0 0 1-.24-.197.66.66 0 0 1-.115-.297.872.872 0 0 1 .025-.375zm15.408 42.406l-.336 1.252h-5.447l-1.011 3.77h4.411l-.322 1.203h-4.411l-1.04 3.881h5.448l-.335 1.251h-6.993l3.044-11.354 6.992-.003zm.014 6.004h3.912l-.322 1.203h-3.912l.322-1.203zm6.533 4.053h4.91l-.35 1.299h-6.445l3.043-11.354h1.536l-2.694 10.055zm11.11-6.858c.479 0 .901.082 1.266.244.363.155.652.393.867.691.214.309.345.686.392 1.127.047.446-.008.956-.16 1.528-.061.223-.123.369-.188.443-.064.069-.167.106-.299.106h-5.342c-.125.507-.174.95-.146 1.325.021.377.116.688.271.942.154.25.367.438.644.563.271.123.603.188.979.188.354 0 .67-.044.947-.125.275-.081.521-.173.729-.271.21-.096.389-.183.532-.265.146-.085.266-.124.354-.124.116 0 .19.045.231.135l.259.521a3.987 3.987 0 0 1-.771.548 6.088 6.088 0 0 1-.885.382 6.153 6.153 0 0 1-.921.225 5.285 5.285 0 0 1-.896.073c-.558 0-1.039-.094-1.455-.281a2.301 2.301 0 0 1-.989-.82c-.243-.36-.392-.813-.438-1.348-.048-.53.021-1.146.209-1.84a5.702 5.702 0 0 1 1.756-2.832c.418-.354.89-.637 1.404-.84a4.744 4.744 0 0 1 1.65-.295zm-.248 1.046c-.681 0-1.271.19-1.767.589-.494.391-.888.935-1.164 1.629h4.359c.092-.328.122-.626.104-.896a1.499 1.499 0 0 0-.209-.702 1.157 1.157 0 0 0-.514-.459c-.213-.108-.488-.161-.809-.161zm9.077 7.111h-.625a.636.636 0 0 1-.314-.063c-.072-.042-.104-.135-.094-.271l.042-.742c-.263.188-.515.356-.755.513a5.428 5.428 0 0 1-.736.382 3.99 3.99 0 0 1-.771.235 4.435 4.435 0 0 1-.854.079c-.313 0-.59-.05-.838-.137a1.414 1.414 0 0 1-.604-.394 1.364 1.364 0 0 1-.303-.665c-.048-.267-.021-.584.075-.95.085-.314.255-.626.507-.919.256-.296.604-.557 1.059-.787.449-.227 1.007-.414 1.672-.559.669-.146 1.457-.22 2.363-.22l.17-.636c.168-.626.162-1.101-.021-1.42-.183-.317-.532-.479-1.058-.479a2.8 2.8 0 0 0-.898.129 4.68 4.68 0 0 0-.688.293c-.198.104-.375.207-.521.294s-.279.132-.4.132c-.099 0-.172-.021-.229-.074a.336.336 0 0 1-.122-.185l-.137-.443c.563-.431 1.123-.753 1.691-.966a5.009 5.009 0 0 1 1.787-.32c.448 0 .826.074 1.139.228.311.146.547.354.713.616.166.265.263.583.281.962.021.375-.029.782-.146 1.23l-1.385 5.137zm-3.424-.871a3.167 3.167 0 0 0 1.34-.285c.207-.089.41-.2.611-.333a7.56 7.56 0 0 0 .604-.443l.443-1.662c-.647 0-1.213.042-1.688.123a5.49 5.49 0 0 0-1.192.322c-.32.133-.565.288-.746.468-.18.179-.297.38-.354.604-.06.211-.071.393-.044.547a.767.767 0 0 0 .176.377.817.817 0 0 0 .354.214c.147.045.311.068.496.068zm5.564.871l2.151-8.025h.808c.153 0 .251.032.292.093.042.063.053.169.033.319l-.262 1.33c.435-.599.896-1.061 1.391-1.391.493-.332 1.01-.499 1.554-.499.222 0 .415.027.582.077.165.053.313.124.44.216l-.465 1.059c-.072.132-.172.193-.299.193a.977.977 0 0 1-.319-.071c-.14-.056-.347-.074-.621-.074-.491 0-.94.146-1.351.44-.41.304-.808.731-1.181 1.304l-1.353 5.029h-1.4zm6.383 0l2.151-8.025h.84c.2 0 .301.098.301.293l-.123.874a6.403 6.403 0 0 1 1.422-.938 3.663 3.663 0 0 1 1.586-.354c.438 0 .812.072 1.104.22.296.146.521.353.674.618s.235.588.252.963-.036.789-.157 1.243l-1.371 5.111h-1.41l1.371-5.111c.162-.606.15-1.079-.032-1.415-.188-.335-.567-.504-1.142-.504-.416 0-.83.101-1.246.301a5.77 5.77 0 0 0-1.224.818l-1.585 5.91-1.411-.004zm12.525-8.03l-2.151 8.025h-1.41l2.152-8.025h1.409zm.991-2.518a1.068 1.068 0 0 1-.188.388 1.565 1.565 0 0 1-.693.532 1.01 1.01 0 0 1-.404.08.699.699 0 0 1-.361-.08c-.104-.053-.188-.127-.259-.219s-.108-.198-.136-.313a.896.896 0 0 1 .021-.388c.035-.138.098-.27.186-.394a1.537 1.537 0 0 1 .684-.542c.137-.053.271-.078.402-.078a.789.789 0 0 1 .633.295c.063.093.107.201.135.325s.017.257-.02.394zm-.656 10.548l2.152-8.025h.838c.201 0 .302.098.303.293l-.123.874a6.397 6.397 0 0 1 1.421-.938 3.666 3.666 0 0 1 1.586-.354c.438 0 .808.072 1.103.22.301.146.521.353.68.618.148.266.23.588.251.963.019.375-.037.789-.159 1.243l-1.37 5.111h-1.405l1.369-5.111c.159-.606.149-1.079-.033-1.415-.188-.335-.567-.504-1.143-.504a2.85 2.85 0 0 0-1.247.301 5.842 5.842 0 0 0-1.223.818l-1.585 5.91-1.415-.004zm13.692-8.157c.354 0 .666.037.949.109.283.076.526.19.735.343h2.178l-.141.521c-.048.175-.188.288-.423.336l-.944.127c.088.343.074.729-.038 1.148a3.08 3.08 0 0 1-.511 1.063 3.454 3.454 0 0 1-.847.82 3.747 3.747 0 0 1-1.09.521 4.38 4.38 0 0 1-1.262.184c-.375 0-.717-.045-1.021-.132a1.935 1.935 0 0 0-.479.351.89.89 0 0 0-.229.367c-.053.197-.018.346.108.446.126.1.312.174.554.216.239.045.521.063.849.063h.983c.336 0 .654.028.961.09.31.063.567.152.785.289.219.135.373.314.463.555.09.229.084.541-.018.916-.094.346-.27.684-.523 1.008a4.1 4.1 0 0 1-.978.871 5.044 5.044 0 0 1-1.343.604c-.508.152-1.053.229-1.639.229s-1.082-.061-1.492-.175c-.408-.115-.733-.271-.976-.471a1.38 1.38 0 0 1-.472-.679 1.47 1.47 0 0 1-.003-.806c.104-.396.319-.731.646-1.011a3.626 3.626 0 0 1 1.211-.66.956.956 0 0 1-.431-.424c-.088-.181-.093-.41-.015-.708.029-.111.084-.233.158-.356.073-.122.176-.246.295-.367.117-.119.256-.232.41-.346.154-.111.33-.209.521-.293a1.71 1.71 0 0 1-.688-.887c-.125-.367-.123-.802.01-1.291.104-.396.272-.744.513-1.066.235-.32.521-.594.849-.818a4.05 4.05 0 0 1 1.104-.521 5.23 5.23 0 0 1 1.281-.166zm.205 8.574c.055-.2.045-.364-.033-.488a.685.685 0 0 0-.375-.288 2.755 2.755 0 0 0-.613-.148 5.633 5.633 0 0 0-.771-.05h-.841c-.282 0-.548-.034-.786-.104-.341.145-.63.314-.871.521-.242.206-.4.451-.479.736-.053.18-.046.35.005.505s.149.29.313.398c.16.113.375.203.646.271s.603.101.989.101c.38 0 .729-.029 1.05-.104.315-.069.604-.169.849-.299.24-.129.439-.282.602-.459.151-.183.258-.378.315-.592zm-1.342-4.329c.285 0 .551-.04.79-.118.24-.08.452-.19.638-.333a2.16 2.16 0 0 0 .758-1.169c.136-.492.093-.883-.131-1.181-.222-.285-.617-.436-1.188-.436-.564 0-1.034.146-1.41.436a2.174 2.174 0 0 0-.764 1.181 1.75 1.75 0 0 0-.061.651c.021.199.088.367.194.518.106.143.265.253.456.333.201.078.439.118.718.118zm18.4-7.46l-.35 1.299h-3.666l-2.697 10.063h-1.535l2.695-10.063h-3.686l.352-1.299h8.887zm2.044 3.215c.479 0 .901.082 1.266.244.363.155.652.393.867.691.214.309.345.686.392 1.127.047.446-.008.956-.16 1.528-.061.223-.123.369-.188.443-.064.069-.167.106-.299.106h-5.342c-.125.507-.174.95-.146 1.325.024.377.116.688.271.942.154.25.367.438.644.563.271.123.603.188.979.188.354 0 .67-.044.949-.125.273-.081.521-.173.729-.271a7.09 7.09 0 0 0 .536-.265c.146-.085.263-.124.353-.124.116 0 .193.045.233.135l.257.521a3.897 3.897 0 0 1-.771.548 6.16 6.16 0 0 1-.883.382 6.226 6.226 0 0 1-.922.225 5.269 5.269 0 0 1-.896.073c-.555 0-1.037-.094-1.452-.281a2.326 2.326 0 0 1-.991-.82c-.243-.36-.393-.813-.438-1.348-.047-.53.021-1.146.209-1.84.146-.56.377-1.082.679-1.565a5.584 5.584 0 0 1 1.077-1.267 4.99 4.99 0 0 1 1.406-.84 4.657 4.657 0 0 1 1.641-.295zm-.248 1.046c-.681 0-1.271.19-1.767.589-.494.391-.883.935-1.164 1.629h4.363c.088-.328.118-.626.104-.896a1.476 1.476 0 0 0-.208-.702 1.182 1.182 0 0 0-.515-.459c-.217-.108-.492-.161-.813-.161zm9.078 7.111h-.625c-.138 0-.243-.021-.315-.063s-.104-.135-.094-.271l.041-.742c-.262.188-.514.356-.755.513a5.36 5.36 0 0 1-.735.382c-.25.104-.506.183-.771.235a4.435 4.435 0 0 1-.854.079c-.313 0-.59-.05-.838-.137a1.414 1.414 0 0 1-.604-.394 1.344 1.344 0 0 1-.301-.665c-.05-.267-.022-.584.073-.95.085-.314.255-.626.509-.919.254-.296.604-.557 1.057-.787.449-.227 1.008-.414 1.675-.559.668-.146 1.455-.22 2.36-.22l.17-.636c.168-.626.162-1.101-.021-1.42-.181-.317-.53-.479-1.056-.479-.346 0-.645.043-.9.129a4.68 4.68 0 0 0-.688.293c-.198.104-.375.207-.521.294s-.279.132-.4.132c-.1 0-.172-.021-.229-.074a.336.336 0 0 1-.122-.185l-.135-.443a6.542 6.542 0 0 1 1.689-.966 5.009 5.009 0 0 1 1.787-.32c.447 0 .826.074 1.139.228.311.146.547.354.713.616.166.265.263.583.281.962.021.375-.027.782-.146 1.23l-1.384 5.137zm-3.425-.871a3.167 3.167 0 0 0 1.341-.285c.206-.089.409-.2.61-.333a7.56 7.56 0 0 0 .604-.443l.443-1.662c-.647 0-1.211.042-1.688.123a5.558 5.558 0 0 0-1.194.322c-.32.133-.564.288-.744.468-.18.179-.299.38-.354.604-.06.211-.071.393-.044.547a.767.767 0 0 0 .176.377.817.817 0 0 0 .354.214c.146.045.311.068.496.068zm5.564.871l2.151-8.025h.84c.199 0 .301.098.301.293l-.118.826a6.09 6.09 0 0 1 1.235-.896c.43-.229.886-.35 1.371-.35.544 0 .943.146 1.199.452.254.301.386.707.396 1.222.188-.29.404-.543.644-.754.24-.212.488-.392.754-.523a3.56 3.56 0 0 1 1.618-.397c.424 0 .778.064 1.072.204.294.134.521.324.686.589.16.258.25.578.271.955s-.035.811-.166 1.296l-1.368 5.108h-1.41l1.369-5.108c.17-.628.159-1.106-.027-1.436-.188-.32-.543-.483-1.063-.483a2.253 2.253 0 0 0-1.336.478 2.448 2.448 0 0 0-.534.604 2.946 2.946 0 0 0-.363.837l-1.369 5.108h-1.409l1.37-5.108c.173-.646.173-1.127-.002-1.444-.174-.313-.51-.475-1.006-.475-.35 0-.694.096-1.043.277-.351.188-.69.444-1.026.771l-1.604 5.979h-1.433z"/></g></svg>