<svg xmlns="http://www.w3.org/2000/svg" width="173.681" height="32.385" viewBox="8.598 49.583 173.681 32.385"><g fill="#FFF"><path d="M51.49 59.853c0 1.064-.263 1.984-.808 2.754-.642.87-1.481 1.313-2.521 1.313-1.054 0-1.895-.441-2.535-1.313-.545-.77-.824-1.688-.824-2.754v-4.348H42.94v4.562c0 1.591.527 2.918 1.565 4 1.005 1.065 2.224 1.608 3.656 1.608 1.45 0 2.668-.557 3.674-1.674 1.006-1.098 1.515-2.41 1.515-3.936v-4.563h-1.86v4.351zm-2.389-7.68h-1.809v1.823h1.809zm9.343 3.316c-2.074 0-3.542 1.511-3.542 3.726 0 2.182 1.418 3.738 3.542 3.738.842 0 1.435-.277 1.747-.834-.031 1.277-.609 2.047-1.761 2.082v1.459c2.387 0 3.574-.982 3.574-2.938v-3.46c0-2.166-1.384-3.773-3.56-3.773zm0 5.807c-1.005 0-1.696-.937-1.696-2.084 0-1.115.644-2.051 1.614-2.051 1.055 0 1.746.854 1.746 2.133 0 1.082-.675 2.002-1.664 2.002zm22.11-9.123H78.76v1.823h1.794zm1.583-2.59h-1.812v1.836h1.812zm-.263 4.413h1.795v-1.823h-1.795zm3.113 5.281c0 1.199-.461 1.807-1.398 1.807H81.79c.248-.264.38-.937.38-2.002v-3.576h-1.862v3.758c0 1.214-.461 1.82-1.398 1.82h-1.714v-.099c.196-.312.296-.937.296-1.903v-3.576H75.63v3.642c0 1.298-.46 1.937-1.4 1.937h-6.87v-5.576h-1.847v6.267c0 1.573-.756 2.33-2.29 2.33v1.573c2.241 0 3.741-.969 4.021-2.725h16.41c1.876 0 3.196-1.541 3.196-3.902v-3.543h-1.863v3.768zm10.76.083c0 .593-.049.984-.131 1.183-.183.359-.56.541-1.172.541h-2.025c-.692 0-1.17-.099-1.418-.278-.344-.247-.526-.771-.526-1.575v-6.855h-1.829v7.595c0 .901.214 1.608.659 2.133.479.574 1.153.853 2.043.853h3.478c1.847 0 2.768-.983 2.768-2.97v-4.478h-1.845v3.853h-.002zm1.812-7.187h-1.794v1.823h1.794zm41.802 0h-1.812v1.823h1.812z"/><path d="M154.683 59.36c0 .593-.048.984-.131 1.183-.183.359-.562.541-1.171.541h-2.636v-.476c0-1.099-.347-2.003-1.021-2.741-.675-.736-1.564-1.099-2.67-1.099-1.102 0-1.992.36-2.684 1.065-.677.705-1.021 1.607-1.021 2.709 0 .18 0 .358.019.539h-4.4c.265-.313.396-.936.396-1.902v-3.674h-1.829v3.771c0 .576-.066 1.002-.196 1.247-.199.378-.563.559-1.105.559h-6c0-4.134-2.105-7.219-5.683-7.938l-.23 1.756c2.389.49 4.085 2.919 4.085 5.677 0 .163 0 .326-.016.508h-2.175c.279-.672.428-1.248.428-1.705 0-1.971-1.318-3.185-3.245-3.185s-3.262 1.214-3.262 3.185c0 .476.149 1.033.43 1.705h-7.629c.065-.345.097-.672.097-1.017v-7.694h-1.858v7.48c0 2.313-1.385 4.066-3.329 4.066-2.01 0-3.361-1.803-3.361-4.066v-1.395h-1.861v1.607c0 3.083 2.354 5.607 5.223 5.607 1.812 0 3.508-1.016 4.447-2.723h31.82c.709.951 1.682 1.428 2.946 1.428 1.289 0 2.274-.477 2.984-1.428h3.723c1.844 0 2.767-.984 2.767-2.97v-7.61h-1.845v6.989h-.007zm-31.29 1.772c-.889 0-1.516-.756-1.516-1.756 0-.984.545-1.724 1.516-1.724.906 0 1.516.688 1.516 1.724-.001.985-.643 1.756-1.516 1.756zm25.027.918c-.313.41-.757.623-1.315.623-1.138 0-1.862-.967-1.862-2.149 0-.571.148-1.065.429-1.442.33-.442.774-.656 1.336-.656.574 0 1.055.229 1.4.674.295.411.443.918.443 1.492-.001.589-.15 1.081-.431 1.458zm9.805.901h1.829V52.355h-1.829zm9.291-1.179c0 1.573-.755 2.33-2.287 2.33v1.573c2.832 0 4.134-1.23 4.134-4.184v-5.986h-1.847v6.267zm3.543 1.179h1.829V52.355h-1.829zm7.875-7.184c-.428-.146-.756-.214-.987-.229-.23-.017-.808-.033-1.713-.033v1.673c.593 0 1.151.032 1.664.147 1.664.36 2.503 1.606 2.503 3.756h-5.962v1.869h7.822v-1.869c-.015-2.803-1.119-4.576-3.327-5.314zM46.548 72.677c.54 0 1.041.089 1.505.269a3.26 3.26 0 0 1 1.206.802c.339.357.604.805.797 1.34.191.533.287 1.164.287 1.886 0 .634-.078 1.219-.233 1.755a3.898 3.898 0 0 1-.709 1.385 3.328 3.328 0 0 1-1.183.922c-.472.223-1.028.334-1.669.334h-3.607v-8.689h3.606v-.004zm-.128 7.083c.265 0 .522-.046.772-.134.249-.088.473-.237.667-.444.195-.206.351-.478.469-.81.116-.332.175-.738.175-1.217 0-.438-.042-.835-.123-1.188a2.37 2.37 0 0 0-.403-.906 1.82 1.82 0 0 0-.745-.579c-.308-.132-.688-.2-1.142-.2h-1.312v5.478h1.642zm4.954-2.751c.021-.405.12-.742.293-1.01.17-.269.391-.482.654-.645a2.91 2.91 0 0 1 .897-.35 4.958 4.958 0 0 1 1.001-.103c.304 0 .611.022.924.066.313.045.598.132.855.261.256.13.469.311.632.542.164.231.247.537.247.919v3.273c0 .283.015.556.047.815.031.261.085.454.163.584H55.4a2.734 2.734 0 0 1-.114-.609 2.196 2.196 0 0 1-.938.596c-.359.113-.727.17-1.101.17-.288 0-.56-.036-.809-.107a1.82 1.82 0 0 1-.655-.342 1.58 1.58 0 0 1-.438-.584 2.03 2.03 0 0 1-.16-.84c0-.357.062-.65.185-.884.119-.229.274-.416.468-.554.19-.14.409-.239.655-.309.246-.07.493-.124.742-.166.251-.041.496-.074.738-.097.242-.024.457-.062.646-.109.185-.051.334-.12.443-.215.11-.092.16-.228.151-.405a.95.95 0 0 0-.087-.445.699.699 0 0 0-.234-.256.872.872 0 0 0-.34-.121 2.686 2.686 0 0 0-.414-.03c-.329 0-.585.073-.775.219-.187.147-.296.392-.328.729h-1.66v.007zm3.84 1.278a.743.743 0 0 1-.263.152c-.105.036-.22.066-.341.092a7.054 7.054 0 0 1-.38.061 5.85 5.85 0 0 0-.397.062 2.832 2.832 0 0 0-.369.099c-.121.039-.228.096-.316.164s-.162.154-.216.263a.856.856 0 0 0-.082.399c0 .153.027.283.082.389a.659.659 0 0 0 .224.252.88.88 0 0 0 .327.127c.125.023.254.035.387.035.329 0 .583-.055.762-.168.179-.116.312-.252.396-.408.086-.159.141-.319.158-.48.021-.164.029-.294.029-.391l-.001-.648zm4.532-3.213v1.168h.022a2.188 2.188 0 0 1 .772-.968c.173-.117.354-.208.551-.272.195-.065.396-.098.61-.098.107 0 .229.02.36.061v1.605a3.231 3.231 0 0 0-.595-.06c-.304 0-.562.051-.774.157-.209.105-.38.25-.509.434a1.8 1.8 0 0 0-.273.638 3.528 3.528 0 0 0-.082.792v2.835h-1.663v-6.292h1.581zm10.575-2.397l3.126 8.689h-1.908l-.631-1.937H67.78l-.655 1.937h-1.852l3.161-8.689h1.887zm.105 5.33l-1.054-3.188h-.023l-1.091 3.188h2.168zm5.281-5.33v8.689h-1.664v-8.689zm7.331 0l1.956 5.976h.022l1.85-5.976h2.588v8.689h-1.721v-6.159h-.023l-2.048 6.159h-1.418l-2.05-6.098h-.024v6.098h-1.722v-8.689zm7.786 4.332c.022-.405.12-.742.293-1.01.171-.269.391-.482.655-.645s.564-.277.896-.35a4.982 4.982 0 0 1 1.002-.103c.304 0 .612.022.925.066.313.045.596.132.854.261.257.13.469.311.632.542.165.231.246.537.246.919v3.273c0 .283.017.556.048.815.03.261.084.454.162.584H94.85a2.53 2.53 0 0 1-.075-.3 2.37 2.37 0 0 1-.042-.309 2.184 2.184 0 0 1-.938.596c-.358.113-.726.17-1.102.17-.287 0-.558-.036-.808-.107a1.85 1.85 0 0 1-.656-.342 1.588 1.588 0 0 1-.437-.584 2.014 2.014 0 0 1-.16-.84c0-.357.062-.65.182-.884.12-.229.276-.416.468-.554.191-.14.41-.239.654-.309a7 7 0 0 1 .745-.166c.25-.041.496-.074.737-.097.242-.024.457-.062.646-.109.187-.051.334-.12.445-.215.108-.092.16-.228.151-.405a.963.963 0 0 0-.087-.445.71.71 0 0 0-.235-.256.88.88 0 0 0-.338-.121c-.13-.02-.27-.03-.417-.03-.328 0-.585.073-.773.219-.188.147-.298.392-.329.729h-1.658v.007zm3.841 1.278a.744.744 0 0 1-.265.152 3.03 3.03 0 0 1-.339.092 7.26 7.26 0 0 1-.381.061 5.85 5.85 0 0 0-.397.062 2.89 2.89 0 0 0-.37.099c-.121.039-.227.096-.316.164s-.162.154-.217.263a.869.869 0 0 0-.081.399.85.85 0 0 0 .081.389.665.665 0 0 0 .223.252.892.892 0 0 0 .328.127c.125.023.254.035.386.035.328 0 .582-.055.764-.168.179-.116.311-.252.396-.408.085-.159.14-.319.158-.48.02-.164.03-.294.03-.391v-.648zm4.532-3.213v.877h.035c.21-.365.484-.63.818-.797a2.28 2.28 0 0 1 1.031-.25c.444 0 .811.063 1.095.188.285.127.509.301.673.523s.28.494.345.814c.065.32.1.676.1 1.066v3.868h-1.662V77.81c0-.52-.079-.907-.236-1.16-.154-.258-.433-.386-.831-.386-.453 0-.781.14-.982.421-.203.279-.305.741-.305 1.38v3.299h-1.664v-6.292h1.584v.002zm7.025-2.397v3.273h.036c.211-.365.479-.63.808-.797.328-.168.647-.25.96-.25.445 0 .811.063 1.097.188.282.126.509.3.672.522s.279.494.345.814c.066.32.099.676.099 1.066v3.868h-1.66V77.81c0-.52-.078-.907-.235-1.16-.156-.258-.434-.386-.833-.386-.452 0-.781.14-.982.421-.204.279-.305.741-.305 1.38v3.299h-1.662v-8.688h1.662v.001zm5.212 4.332c.024-.405.121-.742.293-1.01.17-.269.391-.482.655-.645s.563-.277.896-.35c.33-.068.665-.103 1-.103.305 0 .613.022.925.066.313.045.598.132.855.261.257.13.468.311.631.542.164.231.247.537.247.919v3.273c0 .283.015.556.047.815.031.261.085.454.163.584h-1.687a2.555 2.555 0 0 1-.117-.609 2.186 2.186 0 0 1-.937.596c-.358.113-.727.17-1.1.17-.291 0-.561-.036-.81-.107a1.833 1.833 0 0 1-.656-.342 1.604 1.604 0 0 1-.439-.584 2.064 2.064 0 0 1-.157-.84c0-.357.06-.65.182-.884.121-.229.278-.416.469-.554.19-.14.41-.239.655-.309.247-.07.495-.124.745-.166.25-.041.495-.074.737-.097.241-.024.455-.062.644-.109.188-.051.336-.12.445-.215.109-.092.161-.228.151-.405 0-.188-.028-.337-.086-.445a.699.699 0 0 0-.234-.256.876.876 0 0 0-.341-.121 2.704 2.704 0 0 0-.414-.03c-.328 0-.588.073-.774.219-.187.147-.297.392-.328.729h-1.661v.007zm3.84 1.278a.726.726 0 0 1-.263.152 2.972 2.972 0 0 1-.339.092 7.802 7.802 0 0 1-.381.061 6.113 6.113 0 0 0-.399.062 2.818 2.818 0 0 0-.368.099c-.12.039-.226.096-.314.164a.742.742 0 0 0-.218.263.844.844 0 0 0-.082.399c0 .153.026.283.082.389a.665.665 0 0 0 .223.252c.095.061.202.104.327.127s.254.035.386.035c.329 0 .582-.055.762-.168.181-.116.313-.252.397-.408.087-.159.139-.319.158-.48.02-.164.028-.294.028-.391l.001-.648zm4.662-5.61v8.689h-1.664v-8.689zm8.512 0c.522 0 .968.078 1.334.236.368.158.664.368.896.627.23.261.396.558.503.889.105.333.157.679.157 1.035 0 .349-.052.69-.157 1.027a2.387 2.387 0 0 1-.503.895 2.47 2.47 0 0 1-.896.627c-.366.158-.812.236-1.334.236h-1.933v3.116h-1.839v-8.688h3.772zm-.503 4.089c.21 0 .414-.017.609-.048.194-.031.366-.096.516-.19a.985.985 0 0 0 .355-.396c.091-.17.136-.393.136-.668 0-.274-.045-.5-.136-.67a1.014 1.014 0 0 0-.355-.396 1.393 1.393 0 0 0-.516-.188 3.881 3.881 0 0 0-.609-.049h-1.429v2.604h1.429zm8.466 4.6v-.876h-.035c-.211.365-.484.629-.819.792a2.364 2.364 0 0 1-1.03.241c-.444 0-.811-.063-1.095-.182a1.574 1.574 0 0 1-.674-.52 2.078 2.078 0 0 1-.346-.814c-.066-.32-.1-.676-.1-1.063v-3.87h1.662v3.555c0 .521.077.906.235 1.162.155.256.433.383.83.383.453 0 .781-.141.983-.42s.306-.738.306-1.381v-3.299h1.662v6.292h-1.579zm4.511-8.689v3.164h.021c.204-.324.479-.563.825-.711.35-.15.71-.227 1.083-.227.307 0 .604.064.901.194.298.129.563.329.804.597.236.268.431.609.579 1.027.147.419.221.915.221 1.49 0 .576-.072 1.074-.221 1.49a3.101 3.101 0 0 1-.579 1.029 2.276 2.276 0 0 1-1.705.79 3.06 3.06 0 0 1-1.193-.218 1.555 1.555 0 0 1-.798-.742h-.022v.803h-1.579v-8.688l1.663.002zm2.692 4.781a2.085 2.085 0 0 0-.258-.645 1.4 1.4 0 0 0-.438-.445 1.22 1.22 0 0 0-.641-.162c-.242 0-.453.055-.634.162-.179.111-.328.26-.444.445a2.124 2.124 0 0 0-.257.645c-.055.244-.083.5-.083.768 0 .26.028.511.083.756.054.243.143.458.257.645.116.188.267.334.444.443.181.11.392.164.634.164.25 0 .463-.054.641-.164.174-.109.318-.257.438-.443.117-.187.203-.4.258-.645.057-.245.081-.496.081-.756 0-.268-.025-.523-.081-.768zm4.509-4.781v8.689h-1.662v-8.689zm1.357 1.423v-1.423h1.664V74.1h-1.664zm1.664.974v6.292h-1.664v-6.292h1.664zm2.71 4.729a.95.95 0 0 0 .288.327c.116.086.251.148.403.189.15.04.31.061.475.061.116 0 .239-.014.367-.043a1.24 1.24 0 0 0 .354-.133.875.875 0 0 0 .263-.244.662.662 0 0 0 .105-.385c0-.258-.166-.453-.498-.582-.333-.133-.795-.26-1.388-.392a8.167 8.167 0 0 1-.708-.198 2.353 2.353 0 0 1-.614-.307 1.424 1.424 0 0 1-.435-.475 1.38 1.38 0 0 1-.164-.699c0-.406.075-.738.228-.997a1.71 1.71 0 0 1 .604-.614 2.59 2.59 0 0 1 .844-.316c.313-.063.632-.092.96-.092s.646.031.954.098c.309.064.584.175.826.33.241.153.442.356.603.612.161.257.257.578.286.968h-1.579c-.023-.332-.145-.559-.363-.676s-.478-.177-.771-.177c-.095 0-.195.006-.305.019-.11.014-.209.039-.298.078a.649.649 0 0 0-.23.178.487.487 0 0 0-.094.312c0 .153.055.28.166.377.106.099.251.176.426.235.176.062.376.117.604.164.227.051.457.104.688.16.244.057.479.125.712.207.228.08.434.188.61.321.182.136.327.302.435.498.11.199.163.445.163.737 0 .414-.08.761-.235 1.041a2.007 2.007 0 0 1-.628.675c-.26.171-.555.29-.886.358a5.032 5.032 0 0 1-2.043-.003 2.633 2.633 0 0 1-.896-.367 1.994 1.994 0 0 1-.643-.676c-.171-.277-.261-.631-.277-1.051h1.581a.937.937 0 0 0 .11.482zm6.552-7.126v3.273h.034c.211-.365.48-.63.809-.797.327-.168.646-.25.961-.25.444 0 .81.063 1.095.188.286.126.51.3.672.522.164.225.278.494.347.814.065.32.101.676.101 1.066v3.868h-1.663V77.81c0-.52-.079-.907-.234-1.16-.154-.258-.433-.386-.832-.386-.452 0-.78.14-.982.421-.202.279-.304.741-.304 1.38v3.299h-1.662v-8.688h1.66v.001zm7.061 7.18c.251.252.609.377 1.078.377.334 0 .624-.086.864-.262.241-.174.392-.358.445-.555h1.464c-.233.756-.594 1.297-1.076 1.619-.483.324-1.069.486-1.757.486a3.33 3.33 0 0 1-1.289-.236 2.701 2.701 0 0 1-.973-.676 3.057 3.057 0 0 1-.613-1.047 3.93 3.93 0 0 1-.217-1.339c0-.47.074-.909.225-1.313.146-.406.355-.757.629-1.052.274-.297.601-.528.979-.702a3.053 3.053 0 0 1 1.26-.254c.514 0 .964.104 1.347.311s.696.486.941.834c.246.351.424.746.533 1.192s.146.912.117 1.398h-4.368c.023.563.16.968.411 1.219zm1.878-3.311c-.198-.228-.502-.34-.906-.34-.265 0-.485.047-.662.141a1.257 1.257 0 0 0-.646.784 2.268 2.268 0 0 0-.075.414h2.705c-.078-.438-.216-.77-.416-.999zm4.643-1.472v1.168h.022a2.2 2.2 0 0 1 .773-.968c.173-.117.354-.208.552-.272a1.89 1.89 0 0 1 .608-.098c.107 0 .23.02.36.061v1.605a3.164 3.164 0 0 0-.595-.06c-.305 0-.562.051-.772.157-.21.105-.38.25-.509.434-.13.184-.22.396-.275.638a3.648 3.648 0 0 0-.082.792v2.835h-1.664v-6.292h1.582zm4.375 4.729a.947.947 0 0 0 .287.327c.115.086.25.148.402.189.154.04.311.061.474.061.119 0 .24-.014.37-.043.13-.027.246-.073.352-.133a.894.894 0 0 0 .265-.244.662.662 0 0 0 .105-.385c0-.258-.166-.453-.497-.582-.333-.133-.795-.26-1.39-.392a8.633 8.633 0 0 1-.71-.198 2.355 2.355 0 0 1-.612-.307 1.422 1.422 0 0 1-.434-.475 1.37 1.37 0 0 1-.165-.699c0-.406.077-.738.229-.997.151-.259.354-.466.604-.614.247-.15.53-.256.842-.316a4.931 4.931 0 0 1 1.914.006c.31.064.585.175.825.33.244.153.444.356.604.612.159.257.256.578.287.968h-1.581c-.022-.332-.146-.559-.362-.676a1.619 1.619 0 0 0-.773-.177c-.094 0-.192.006-.304.019a1.103 1.103 0 0 0-.299.078.628.628 0 0 0-.229.178.493.493 0 0 0-.094.312c0 .153.056.28.165.377.108.099.251.176.426.235.18.062.379.117.605.164.226.051.455.104.688.16.242.057.479.125.709.207.229.08.437.188.614.321.18.136.324.302.435.498.108.199.164.445.164.737 0 .414-.082.761-.239 1.041-.16.279-.37.505-.626.675-.26.171-.554.29-.887.358a5.037 5.037 0 0 1-2.043-.003 2.616 2.616 0 0 1-.896-.367 2.039 2.039 0 0 1-.645-.676c-.168-.277-.261-.631-.272-1.051h1.58a.99.99 0 0 0 .112.482z"/></g><path fill="none" d="M28.669 57.458a4.29 4.29 0 0 0-.504 2.021 4.321 4.321 0 0 0 4.18 4.312c.047.002.093.008.141.008a4.3 4.3 0 0 0 2.911-1.136 4.31 4.31 0 0 0 1.409-3.183 4.325 4.325 0 0 0-4.32-4.321c-.463 0-.908.075-1.327.21a4.503 4.503 0 0 0-.472.188 4.336 4.336 0 0 0-2.018 1.901z"/><path fill="#FFF" d="M32.485 55.159a4.326 4.326 0 0 1 4.32 4.321 4.306 4.306 0 0 1-1.409 3.183c.057.157.113.317.168.478a4.786 4.786 0 0 0-3.079-8.447 4.76 4.76 0 0 0-1.656.3c.113.122.219.253.329.376a4.283 4.283 0 0 1 1.327-.211z"/><path fill="#FFF" d="M30.686 55.556c.153-.07.31-.134.472-.188-.11-.123-.216-.254-.329-.376a4.81 4.81 0 0 0-.476.206c.112.119.223.238.333.358zm4.312 7.43c.056.154.109.31.162.463.141-.095.275-.199.404-.309-.055-.16-.111-.32-.168-.478a4.574 4.574 0 0 1-.398.324z"/><path fill="#FFF" d="M32.485 63.799c-.048 0-.094-.006-.141-.008.056.155.108.315.162.473a4.762 4.762 0 0 0 2.654-.815 23.28 23.28 0 0 0-.162-.463 4.297 4.297 0 0 1-2.513.813zm-4.145-6.707c.112.118.22.243.329.366a4.34 4.34 0 0 1 2.017-1.902 22.33 22.33 0 0 0-.333-.357 4.793 4.793 0 0 0-2.013 1.893z"/><path fill="#FFF" d="M28.164 59.48c0-.73.183-1.419.504-2.021-.109-.123-.217-.248-.329-.366a4.765 4.765 0 0 0-.642 2.387 4.787 4.787 0 0 0 4.787 4.786l.021-.001c-.054-.157-.106-.317-.162-.473a4.322 4.322 0 0 1-4.179-4.312z"/><path fill="none" d="M26.347 62.874a1.6 1.6 0 0 1 .57-.876 4.04 4.04 0 0 0-3.94-3.151 4.04 4.04 0 0 0-3.939 3.163c.131.061.505.273.59.835.248-.168.656-.646.489-1.917l-.049-.38.299.241c.019.016 1.756 1.382 4.247.533a3.39 3.39 0 0 1-.65-.452l-.284-.267h2.174l-.01.163c-.001.018-.083 1.518.503 2.108z"/><path d="M21.426 64.865a1.808 1.808 0 0 0 3.103 0c-.453.278-.981.332-1.553.332-.569 0-1.099-.054-1.55-.332zm2.199-.997a.695.695 0 0 0-.649-.474.69.69 0 0 0-.648.477.149.149 0 0 0 .094.19c.016.004.032.009.049.009a.15.15 0 0 0 .142-.103.394.394 0 0 1 .364-.275c.162 0 .309.111.365.273.027.079.113.12.191.092a.15.15 0 0 0 .092-.189z" fill="#FFF"/><circle fill="#FFF" cx="24.581" cy="62.835" r=".605"/><circle fill="#FFF" cx="21.374" cy="62.835" r=".605"/><path fill="none" d="M23.014 58.433c2.028 0 3.744 1.422 4.33 3.254.006-.092.014-.181.014-.273a4.344 4.344 0 0 0-8.688 0c0 .093.009.182.013.273.587-1.832 2.305-3.254 4.331-3.254z"/><path fill="#0E7F6A" d="M22.807 75.268h.326v.327h-.326z"/><path fill="none" d="M22.969 67.247c-.567 0-1.11-.109-1.608-.309-.003.033-.007.066-.007.102a1.616 1.616 0 0 0 3.229 0c0-.066.001-.025-.005-.088a3.61 3.61 0 0 1-1.113.267 4.755 4.755 0 0 1-.496.028z"/><path fill="none" d="M22.969 68.655c.892 0 1.614-.725 1.614-1.615 0-.066.001-.025-.005-.088a3.61 3.61 0 0 1-1.113.267 4.306 4.306 0 0 1-2.105-.281c-.003.033-.007.066-.007.102.002.89.724 1.615 1.616 1.615zm-4.299-7.241c0 .093.009.182.013.273.587-1.832 2.304-3.254 4.331-3.254 2.028 0 3.744 1.422 4.33 3.254.006-.092.014-.181.014-.273a4.344 4.344 0 0 0-8.688 0z"/><path fill="none" d="M26.347 62.874a1.6 1.6 0 0 1 .57-.876 4.04 4.04 0 0 0-3.94-3.151 4.04 4.04 0 0 0-3.939 3.163c.131.061.505.273.59.835.248-.168.656-.646.489-1.917l-.049-.38.299.241c.019.016 1.756 1.382 4.247.533a3.39 3.39 0 0 1-.65-.452l-.284-.267h2.174l-.01.163c-.001.018-.083 1.518.503 2.108z"/><path fill="#FFF" d="M15.701 75.268h.264v.327h-.264z"/><path fill="none" d="M18.67 61.414c0 .093.009.182.013.273.587-1.832 2.304-3.254 4.331-3.254 2.028 0 3.744 1.422 4.33 3.254.006-.092.014-.181.014-.273a4.344 4.344 0 0 0-8.688 0zm4.299 7.241c.892 0 1.614-.725 1.614-1.615 0-.066.001-.025-.005-.088a3.61 3.61 0 0 1-1.113.267 4.306 4.306 0 0 1-2.105-.281c-.003.033-.007.066-.007.102.002.89.724 1.615 1.616 1.615z"/><path fill="none" d="M26.347 62.874a1.6 1.6 0 0 1 .57-.876 4.04 4.04 0 0 0-3.94-3.151 4.04 4.04 0 0 0-3.939 3.163c.131.061.505.273.59.835.248-.168.656-.646.489-1.917l-.049-.38.299.241c.019.016 1.756 1.382 4.247.533a3.39 3.39 0 0 1-.65-.452l-.284-.267h2.174l-.01.163c-.001.018-.083 1.518.503 2.108zm-11.318 8.278a.32.32 0 0 0 .319.321h1.697a.32.32 0 1 0 0-.64h-1.697a.32.32 0 0 0-.319.319z"/><path fill="none" d="M18.67 61.414c0 .093.009.182.013.273.587-1.832 2.304-3.254 4.331-3.254 2.028 0 3.744 1.422 4.33 3.254.006-.092.014-.181.014-.273a4.344 4.344 0 0 0-8.688 0zm4.299 7.241c.892 0 1.614-.725 1.614-1.615 0-.066.001-.025-.005-.088a3.61 3.61 0 0 1-1.113.267 4.306 4.306 0 0 1-2.105-.281c-.003.033-.007.066-.007.102.002.89.724 1.615 1.616 1.615z"/><path fill="none" d="M26.347 62.874a1.6 1.6 0 0 1 .57-.876 4.04 4.04 0 0 0-3.94-3.151 4.04 4.04 0 0 0-3.939 3.163c.131.061.505.273.59.835.248-.168.656-.646.489-1.917l-.049-.38.299.241c.019.016 1.756 1.382 4.247.533a3.39 3.39 0 0 1-.65-.452l-.284-.267h2.174l-.01.163c-.001.018-.083 1.518.503 2.108zm-11.32 9.196a.32.32 0 0 0 .319.319h2.316a.323.323 0 0 0 .324-.319.326.326 0 0 0-.324-.324h-2.316a.323.323 0 0 0-.319.324z"/><path fill="none" d="M15.965 76.459c3.679-.395 6.067 1.224 6.842 1.828v-8.304c-.508-.535-2.941-2.231-6.842-1.835v2.421h1.081c.322 0 .585.264.585.583 0 .124-.04.237-.105.332h.137a.585.585 0 1 1 .214 1.127c.085.1.141.23.141.372a.584.584 0 0 1-.5.576.58.58 0 0 1-.472.924h-1.081v1.976z"/><path fill="none" d="M17.431 72.663h-2.087a.32.32 0 0 0 0 .64h2.087c.179 0 .323-.144.323-.32s-.144-.32-.323-.32zm8.916-9.789a1.6 1.6 0 0 1 .57-.876 4.04 4.04 0 0 0-3.94-3.151 4.04 4.04 0 0 0-3.939 3.163c.131.061.505.273.59.835.248-.168.656-.646.489-1.917l-.049-.38.299.241c.019.016 1.756 1.382 4.247.533a3.39 3.39 0 0 1-.65-.452l-.284-.267h2.174l-.01.163c-.001.018-.083 1.518.503 2.108zm-11.32 9.196a.32.32 0 0 0 .319.319h2.316a.323.323 0 0 0 .324-.319.326.326 0 0 0-.324-.324h-2.316a.323.323 0 0 0-.319.324zm.002-.918a.32.32 0 0 0 .319.321h1.697a.32.32 0 1 0 0-.64h-1.697a.32.32 0 0 0-.319.319zm7.94-2.497c.892 0 1.614-.725 1.614-1.615 0-.066.001-.025-.005-.088a3.61 3.61 0 0 1-1.113.267 4.306 4.306 0 0 1-2.105-.281c-.003.033-.007.066-.007.102.002.89.724 1.615 1.616 1.615z"/><path fill="none" d="M15.965 76.459c3.679-.395 6.067 1.224 6.842 1.828v-8.304c-.508-.535-2.941-2.231-6.842-1.835v2.421h1.081c.322 0 .585.264.585.583 0 .124-.04.237-.105.332h.137a.585.585 0 1 1 .214 1.127c.085.1.141.23.141.372a.584.584 0 0 1-.5.576.58.58 0 0 1-.472.924h-1.081v1.976zm2.705-15.045c0 .093.009.182.013.273.587-1.832 2.304-3.254 4.331-3.254 2.028 0 3.744 1.422 4.33 3.254.006-.092.014-.181.014-.273a4.344 4.344 0 0 0-8.688 0zm-2.938 9.163v-.429c-.378.072-.609.498-.609.498.096-.058.211-.069.211-.069h.398z"/><path fill="none" d="M17.046 73.579h-1.701a.32.32 0 0 0 0 .641h1.701a.321.321 0 0 0 0-.641zm-1.345 1.689h.264v.327h-.264zm7.106 0h.326v.327h-.326z"/><path fill="#FFF" d="M29.974 75.268h.265v.327h-.265zm0 1.191c-3.678-.395-6.068 1.224-6.841 1.828v-2.692h-.326v2.692c-.774-.604-3.163-2.223-6.842-1.828v-.864h-.264v1.22l.443-.048a9.918 9.918 0 0 1 1.07-.058c2.693 0 4.519 1.109 5.366 1.771l.166.13.24.188.241-.188.167-.13c.847-.661 2.67-1.771 5.365-1.771.351 0 .711.019 1.07.058l.409.048v-1.22h-.265v.864z"/><path fill="none" d="M25.906 67.228c-.252-.328-.347-.439-.347-.439s-.167-.151-.372-.057c-.252.085-.271.308-.271.308a1.924 1.924 0 0 1-1.802 1.915h-.287a1.922 1.922 0 0 1-1.8-1.915s-.021-.223-.272-.308c-.205-.095-.372.057-.372.057s-.095.111-.346.439c-1.283-.325-2.628.277-3.104.526 4.178 0 6.038 1.969 6.038 1.969s1.844-1.969 6.039-1.969c-.477-.249-1.822-.851-3.104-.526z"/><circle fill="none" cx="24.581" cy="62.835" r=".605"/><path fill="none" d="M21.426 64.865a1.808 1.808 0 0 0 3.103 0c-.453.278-.981.332-1.553.332-.569 0-1.099-.054-1.55-.332zm.996-.804c.016.004.032.009.049.009a.15.15 0 0 0 .142-.103.394.394 0 0 1 .364-.275c.162 0 .309.111.365.273.027.079.113.12.191.092a.15.15 0 0 0 .092-.189.695.695 0 0 0-.649-.474.69.69 0 0 0-.648.477.15.15 0 0 0 .094.19z"/><circle fill="none" cx="21.374" cy="62.835" r=".605"/><path fill="none" d="M26.98 62.357v-.008a1.424 1.424 0 0 0-.374.81l-.017.242-.212-.119c-.801-.446-.852-1.879-.846-2.371h-1.004c.269.174.53.292.533.293l.325.149-.331.135c-2.225.907-3.946.121-4.599-.27.111 1.743-.885 2.001-.93 2.012l-.189.046v-.195c0-.465-.229-.672-.358-.755l-.002.011a.375.375 0 0 0-.227-.084c-.34 0-.617.511-.617 1.142 0 .627.277 1.137.617 1.137.161 0 .306-.115.417-.303a4.038 4.038 0 0 0 7.633-.027c.11.204.266.33.434.33.341 0 .618-.51.618-1.137 0-.631-.277-1.142-.618-1.142a.389.389 0 0 0-.253.104zm-4.652 1.514a.69.69 0 0 1 .648-.477c.29 0 .549.189.649.474a.15.15 0 0 1-.092.189.148.148 0 0 1-.191-.092.396.396 0 0 0-.365-.273.394.394 0 0 0-.364.275.15.15 0 0 1-.142.103c-.017 0-.033-.005-.049-.009a.15.15 0 0 1-.094-.19zm-1.559-1.036a.604.604 0 1 1 1.21 0 .605.605 0 0 1-1.21 0zm2.207 2.91a1.807 1.807 0 0 1-1.55-.88c.451.278.981.332 1.55.332.572 0 1.1-.054 1.553-.332a1.81 1.81 0 0 1-1.553.88zm1.605-2.304a.604.604 0 1 1 0-1.209.604.604 0 0 1 0 1.209z"/><path fill="#FFF" d="M35.85 64c-.09-.292-.188-.576-.286-.86a4.847 4.847 0 0 1-.404.309c1.882 5.568 1.679 10.683 1.679 10.683v7.351H9.092v-6.029S7.751 55.563 22.965 50.577c3.105 1.014 5.515 2.66 7.388 4.623a4.68 4.68 0 0 1 .476-.206c-2.115-2.257-4.704-3.896-7.712-4.879l-.152-.049-.15.049c-3.426 1.118-6.307 3.087-8.563 5.85-1.797 2.2-3.2 4.904-4.171 8.037-1.625 5.238-1.487 11.151-1.475 11.46v6.506h28.719v-7.827c.011-.309.149-4.901-1.475-10.141z"/><path fill="none" d="M22.969 68.655c.892 0 1.614-.725 1.614-1.615 0-.066.001-.025-.005-.088a3.61 3.61 0 0 1-1.113.267 4.306 4.306 0 0 1-2.105-.281c-.003.033-.007.066-.007.102.002.89.724 1.615 1.616 1.615z"/><path fill="none" d="M25.906 67.228c-.252-.328-.347-.439-.347-.439s-.167-.151-.372-.057c-.252.085-.271.308-.271.308a1.924 1.924 0 0 1-1.802 1.915h-.287a1.922 1.922 0 0 1-1.8-1.915s-.021-.223-.272-.308c-.205-.095-.372.057-.372.057s-.095.111-.346.439c-1.283-.325-2.628.277-3.104.526 4.178 0 6.038 1.969 6.038 1.969s1.844-1.969 6.039-1.969c-.477-.249-1.822-.851-3.104-.526zm-8.86 6.351h-1.701a.32.32 0 0 0 0 .641h1.701a.321.321 0 0 0 0-.641zm-2.019-1.509a.32.32 0 0 0 .319.319h2.316a.323.323 0 0 0 .324-.319.326.326 0 0 0-.324-.324h-2.316a.323.323 0 0 0-.319.324zm2.404.593h-2.087a.32.32 0 0 0 0 .64h2.087c.179 0 .323-.144.323-.32s-.144-.32-.323-.32z"/><path fill="none" d="M26.98 62.357v-.008a1.424 1.424 0 0 0-.374.81l-.017.242-.212-.119c-.801-.446-.852-1.879-.846-2.371h-1.004c.269.174.53.292.533.293l.325.149-.331.135c-2.225.907-3.946.121-4.599-.27.111 1.743-.885 2.001-.93 2.012l-.189.046v-.195c0-.465-.229-.672-.358-.755l-.002.011a.375.375 0 0 0-.227-.084c-.34 0-.617.511-.617 1.142 0 .627.277 1.137.617 1.137.161 0 .306-.115.417-.303a4.038 4.038 0 0 0 7.633-.027c.11.204.266.33.434.33.341 0 .618-.51.618-1.137 0-.631-.277-1.142-.618-1.142a.389.389 0 0 0-.253.104zm2.994 12.911v1.191c-3.678-.395-6.068 1.224-6.841 1.828v-3.019h-.326v-5.285c-.508-.535-2.941-2.231-6.842-1.835v2.421h1.081c.322 0 .585.264.585.583 0 .124-.04.237-.105.332h.137a.585.585 0 1 1 .214 1.127c.085.1.141.23.141.372a.584.584 0 0 1-.5.576.58.58 0 0 1-.472.924h-1.081v.785h-.264v1.547l.443-.048a9.918 9.918 0 0 1 1.07-.058c2.693 0 4.519 1.109 5.366 1.771l.166.13.24.188.241-.188.167-.13c.847-.661 2.67-1.771 5.365-1.771.351 0 .711.019 1.07.058l.409.048v-1.547h-.264z"/><path fill="none" d="M15.029 71.152a.32.32 0 0 0 .319.321h1.697a.32.32 0 1 0 0-.64h-1.697a.32.32 0 0 0-.319.319zm.703-.575v-.429c-.378.072-.609.498-.609.498.096-.058.211-.069.211-.069h.398zm2.938-9.163c0 .093.009.182.013.273.587-1.832 2.304-3.254 4.331-3.254 2.028 0 3.744 1.422 4.33 3.254.006-.092.014-.181.014-.273a4.344 4.344 0 0 0-8.688 0z"/><path fill="none" d="M26.347 62.874a1.6 1.6 0 0 1 .57-.876 4.04 4.04 0 0 0-3.94-3.151 4.04 4.04 0 0 0-3.939 3.163c.131.061.505.273.59.835.248-.168.656-.646.489-1.917l-.049-.38.299.241c.019.016 1.756 1.382 4.247.533a3.39 3.39 0 0 1-.65-.452l-.284-.267h2.174l-.01.163c-.001.018-.083 1.518.503 2.108zm4.247 8.872h-2.316a.32.32 0 1 0 0 .643h2.316a.322.322 0 0 0 0-.643zm-.002-.913h-1.697a.321.321 0 0 0-.323.319c0 .178.145.321.323.321h1.697a.32.32 0 0 0 0-.64zm.225-.187s-.23-.426-.609-.498v.429h.398s.115.011.211.069z"/><path fill="none" d="M23.133 78.288c.773-.604 3.163-2.223 6.841-1.828v-1.976h-1.08a.58.58 0 0 1-.473-.924.584.584 0 0 1-.498-.576.56.56 0 0 1 .14-.372.586.586 0 0 1-.372-.541c0-.324.263-.586.585-.586h.137a.584.584 0 0 1 .481-.915h1.08v-2.421c-3.948-.396-6.249 1.3-6.841 1.835v8.304z"/><path fill="none" d="M30.596 73.579h-1.701a.323.323 0 0 0-.323.319c0 .181.142.322.323.322h1.701a.32.32 0 0 0 0-.641z"/><path fill="none" d="M35.159 63.449a4.744 4.744 0 0 1-2.654.815c.067.194.135.385.199.583 1.536 4.832 1.418 8.805 1.412 8.971l-.016 1.777h-3.861v1.22l-.409-.048a9.932 9.932 0 0 0-1.07-.058c-2.695 0-4.518 1.109-5.365 1.771l-.167.13-.241.188-.24-.188-.166-.13c-.848-.661-2.673-1.771-5.366-1.771-.352 0-.712.019-1.07.058l-.443.048v-1.22h-3.874l-.016-1.777c-.005-.166-.124-4.139 1.413-8.971 1.789-5.628 5.005-9.434 9.56-11.311l.18-.074.179.074a14.955 14.955 0 0 1 5.196 3.556 4.796 4.796 0 0 1 2.013-1.894c-1.874-1.963-4.283-3.609-7.388-4.623C7.75 55.562 9.092 75.453 9.092 75.453v6.029h27.747v-7.351c-.001 0 .203-5.114-1.68-10.682z"/><path fill="#FFF" d="M22.964 53.462l-.18.074c-4.554 1.877-7.771 5.683-9.56 11.311-1.537 4.832-1.418 8.805-1.413 8.971l.016 1.777h3.874v-.327h.264v-.785h1.081a.579.579 0 0 0 .472-.924.585.585 0 0 0 .5-.576.577.577 0 0 0-.141-.372.586.586 0 0 0 .371-.541.586.586 0 0 0-.585-.586h-.137a.577.577 0 0 0 .105-.332.587.587 0 0 0-.585-.583h-1.081v-2.421c3.901-.396 6.334 1.3 6.842 1.835v5.285h.326v-5.285c.592-.535 2.894-2.231 6.841-1.835v2.421h-1.08a.586.586 0 0 0-.481.915h-.137a.584.584 0 1 0-.213 1.127c-.087.1-.14.23-.14.372 0 .292.216.534.498.576a.581.581 0 0 0 .473.924h1.08v.785h.265v.327H34.1l.016-1.777c.006-.166.124-4.139-1.412-8.971-.063-.198-.132-.389-.199-.583l-.021.001a4.787 4.787 0 0 1-4.787-4.786c0-.87.236-1.685.642-2.387a14.987 14.987 0 0 0-5.196-3.556l-.179-.074zm-7.232 16.686v.429h-.398s-.115.012-.211.069c0 0 .231-.426.609-.498zm1.314 4.072h-1.701a.32.32 0 1 1 0-.641h1.701c.178 0 .322.145.322.319a.319.319 0 0 1-.322.322zm.385-.917h-2.087a.32.32 0 0 1 0-.64h2.087c.179 0 .323.144.323.32s-.144.32-.323.32zm.231-1.557c.178 0 .324.147.324.324a.322.322 0 0 1-.324.319h-2.316a.32.32 0 0 1-.319-.319c0-.177.143-.324.319-.324h2.316zm-.616-.913a.32.32 0 1 1 0 .64h-1.697a.32.32 0 0 1 0-.64h1.697zm13.55 3.387h-1.701a.32.32 0 0 1-.323-.322c0-.175.145-.319.323-.319h1.701c.176 0 .32.145.32.319a.322.322 0 0 1-.32.322zm0-.917h-2.087c-.178 0-.323-.144-.323-.32s.145-.32.323-.32h2.087c.176 0 .32.144.32.32s-.144.32-.32.32zm-.002-.914h-2.316a.321.321 0 1 1 0-.643h2.316a.322.322 0 0 1 0 .643zm-.002-.916h-1.697a.322.322 0 0 1-.323-.321.32.32 0 0 1 .323-.319h1.697a.32.32 0 0 1 0 .64zm-.384-1.325c.378.072.609.498.609.498-.096-.058-.211-.069-.211-.069h-.398v-.429zm-7.237-.425s-1.859-1.969-6.038-1.969c.476-.249 1.821-.852 3.104-.526.251-.328.346-.439.346-.439s.167-.151.372-.057c.251.085.272.308.272.308 0 1.018.796 1.852 1.8 1.915h.287a1.924 1.924 0 0 0 1.802-1.915s.019-.223.271-.308c.205-.095.372.057.372.057s.094.111.347.439c1.282-.325 2.627.277 3.104.526-4.194 0-6.039 1.969-6.039 1.969zm-1.616-2.683a.86.86 0 0 1 .007-.102 4.326 4.326 0 0 0 2.105.281 3.555 3.555 0 0 0 1.113-.267c.006.063.005.021.005.088a1.615 1.615 0 1 1-3.23 0zm6.496-3.646c0 .627-.277 1.137-.618 1.137-.168 0-.324-.126-.434-.33a4.038 4.038 0 1 1-7.633.027c-.111.188-.256.303-.417.303-.34 0-.617-.51-.617-1.137 0-.631.277-1.142.617-1.142a.38.38 0 0 1 .227.084l.002-.011c.129.083.358.29.358.755v.195l.189-.046c.045-.011 1.042-.269.93-2.012.652.391 2.374 1.177 4.599.27l.331-.135-.325-.149a4.376 4.376 0 0 1-.533-.293h1.004c-.006.492.045 1.925.846 2.371l.212.119.017-.242c0-.006.039-.473.374-.81v.008a.398.398 0 0 1 .253-.104c.341 0 .618.511.618 1.142zm-4.171-2.791l.284.267c.193.18.448.341.65.452-2.491.849-4.228-.518-4.247-.533l-.299-.241.049.38c.167 1.271-.242 1.749-.489 1.917-.085-.562-.459-.774-.59-.835a4.04 4.04 0 0 1 3.939-3.163 4.04 4.04 0 0 1 3.94 3.151c-.351.262-.504.631-.57.876-.586-.59-.504-2.09-.503-2.107l.01-.163H23.68zm3.678.811c0 .093-.008.182-.014.273-.586-1.832-2.302-3.254-4.33-3.254-2.027 0-3.744 1.422-4.331 3.254-.004-.092-.013-.181-.013-.273a4.344 4.344 0 1 1 8.688 0z"/></svg>