<?xml version="1.0" encoding="utf-8"?>
<!-- Generator: Adobe Illustrator 16.0.0, SVG Export Plug-In . SVG Version: 6.00 Build 0)  -->
<!DOCTYPE svg PUBLIC "-//W3C//DTD SVG 1.1//EN" "http://www.w3.org/Graphics/SVG/1.1/DTD/svg11.dtd">
<svg version="1.1" id="Isolation_Mode" xmlns="http://www.w3.org/2000/svg" xmlns:xlink="http://www.w3.org/1999/xlink" x="0px"
	 y="0px" width="348.418px" height="73.402px" viewBox="0 0 348.418 73.402" enable-background="new 0 0 348.418 73.402"
	 xml:space="preserve">
<g id="Layer_x0020_1">
	<path fill="#1A363C" d="M23.256,4.159l104.731-4.115c0.77-0.08,1.541-0.047,2.288,0.083c1.655,0.29,3.205,1.063,4.385,2.12
		c1.204,1.08,2.04,2.465,2.24,3.957c0.078,0.589,0.059,1.194-0.077,1.803l-10.928,49.262c-0.459,2.065-1.479,3.991-3.023,5.361
		c-1.452,1.288-3.34,2.094-5.636,2.094l-18.527-0.643l0.747-1.313l1.776,0.984l1.224-2.11l10.65,0.381
		c1.32,0,2.411-0.464,3.253-1.212c1.03-0.914,1.723-2.249,2.046-3.708l10.191-45.938c0.066-0.304,0.077-0.604,0.037-0.901
		c-0.109-0.817-0.588-1.6-1.28-2.222c-0.716-0.642-1.646-1.104-2.631-1.275c-0.415-0.073-0.841-0.096-1.26-0.047L23.211,10.361
		c-0.247,0.026-0.472,0.057-0.667,0.093c-1.381,0.25-2.717,0.813-3.657,1.604c-0.819,0.687-1.313,1.551-1.186,2.511
		c0.013,0.101,0.027,0.181,0.039,0.237l9.06,39.396c0.337,1.467,1.032,2.813,2.065,3.729c0.838,0.737,1.921,1.198,3.238,1.198
		l47.27,1.688c-0.384,0.643-0.756,1.261-0.895,1.559l1.853,1.072l-47.184-1.623c-2.287,0-4.164-0.799-5.61-2.082l-0.007-0.006
		c-1.541-1.369-2.562-3.293-3.035-5.357l-9.714-42.249c-0.043-0.185-0.073-0.342-0.091-0.475c-0.263-1.972,0.661-3.671,2.208-4.967
		c1.418-1.188,3.386-2.024,5.394-2.389C22.64,4.238,22.963,4.19,23.256,4.159z"/>
	<path opacity="0.5" fill="#1A363C" enable-background="new    " d="M40.034,15.326l30.708-3.241
		c0.356-0.037,0.712-0.021,1.059,0.039c0.765,0.134,1.481,0.491,2.026,0.98c0.558,0.499,0.944,1.14,1.036,1.83
		c0.036,0.271,0.027,0.552-0.035,0.833l-5.054,22.773c-0.212,0.957-0.684,1.853-1.397,2.481c-0.672,0.597-1.545,0.966-2.606,0.966
		H44.608c-1.058,0-1.925-0.369-2.595-0.963l-0.002-0.002c-0.713-0.633-1.185-1.523-1.404-2.479l-4.492-19.532
		c-0.02-0.085-0.033-0.158-0.041-0.225c-0.122-0.912,0.306-1.693,1.021-2.297c0.655-0.549,1.565-0.937,2.494-1.104
		C39.75,15.362,39.898,15.34,40.034,15.326z M68.649,15.171l-28.636,3.022c-0.114,0.012-0.218,0.027-0.308,0.043
		c-0.64,0.116-1.257,0.375-1.692,0.74c-0.379,0.313-0.607,0.717-0.548,1.161c0.006,0.046,0.013,0.083,0.019,0.104l4.188,18.22
		c0.156,0.683,0.478,1.304,0.955,1.728c0.388,0.344,0.889,0.557,1.498,0.557H63.86c0.611,0,1.115-0.215,1.505-0.561
		c0.477-0.422,0.796-1.039,0.946-1.715l4.712-21.241c0.031-0.145,0.036-0.281,0.018-0.418c-0.051-0.378-0.271-0.738-0.592-1.025
		c-0.332-0.297-0.762-0.513-1.216-0.592C69.04,15.16,68.844,15.151,68.649,15.171z"/>
	<path fill="#1A363C" d="M78.983,53.307c-0.162,0.277-0.322,0.429-0.526,0.786l-1.563,2.709c0.288,0.166,0.585,0.325,0.87,0.5
		c0.318,0.188,0.454,0.337,0.832,0.555c-1.048,1.813-1.937,3.479-2.979,5.286c1.48,0.854,2.832,1.708,4.356,2.587l8.938,5.161
		c1.542,0.89,2.977,1.646,4.474,2.511c0.257-0.445,0.325-0.802,0.71-1.283c0.325-0.406,0.861-1.46,1.197-2.021
		c0.177-0.302,0.253-0.313,0.431-0.611c0.295-0.492,0.422-0.859,0.727-1.389c0.286,0.417,1.281,0.733,1.733,1
		c1.024-1.773,2.019-3.37,3.057-5.174c0.536,0.163,1.028,0.563,1.497,0.807c0.26,0.135,0.271,0.132,0.428-0.115
		c0.402-0.633,0.803-1.406,1.186-2.068c0.781-1.354,1.563-2.709,2.346-4.063l3.439-5.958c-0.479-0.278-1.41-0.729-1.775-1.071
		l-7.126,12.313l-1.776-0.989l-3.02,5.306l-1.817-1.025l-2.043,3.491L78.481,62.38c0.322-0.688,1.897-3.104,1.97-3.55l-1.719-1.013
		c0.524-0.908,1.055-1.814,1.575-2.729c0.52-0.907,0.549-0.739-0.054-1.097C79.834,53.75,79.424,53.498,78.983,53.307z"/>
	<path fill="#1A363C" d="M84.345,39.88l-1.025,1.775l1.753,1.033l-0.977,1.727l1.742,1.006l11.19-19.413l-1.722-0.976
		c-0.014,0.008-0.024,0.009-0.039,0.029l-0.074,0.063c-0.011,0.018-0.023,0.026-0.035,0.042l-9.04,15.651
		C85.48,40.454,84.978,40.203,84.345,39.88z"/>
	<path fill="#1A363C" d="M100.651,28.122L91.458,43.98l1.742,1.018l4.063-7.043c0.385,0.117,3.306,1.799,3.556,2.061
		c0.384,0.396,3.722,2.196,4.472,2.635c0.013-0.093,0.147-0.061-0.254-0.302l-3.529-2.027c-0.847-0.481-0.78-0.148,0.351-2.107
		L99.2,36.677c-0.346-0.201-0.453-0.342-0.832-0.561l4.034-6.988c-0.451-0.261-0.733-0.531-1.324-0.837
		C100.832,28.17,100.864,28.236,100.651,28.122z"/>
	<path fill="#1A363C" d="M105.112,44.802l1.022-1.741c-0.27-0.155-0.559-0.371-0.845-0.416c-0.75-0.438-4.088-2.239-4.472-2.635
		l-4.083,7.021l1.765,1.021l3.063-5.291L105.112,44.802z"/>
	<path fill="#1A363C" d="M78.768,41.419c-0.151,0.25-0.214,0.242-0.554,0.834c-0.177,0.312-0.354,0.613-0.531,0.921l1.679,0.975
		c-0.166,0.547-1.646,3.102-1.925,3.584l1.734,1l-1.533,2.649c-0.22,0.377-0.261,0.578-0.446,0.898l1.714,0.989
		c0.722-0.94,1.544-2.452,2.108-3.536l-1.733-1.031l2.019-3.515l-1.753-1.05l0.996-1.769C79.967,42.031,79.393,41.642,78.768,41.419
		z"/>
	<path fill="#1A363C" d="M78.783,41.354l2.033-3.497l3.529,2.021l0.56-0.836c0.151-0.309,0.261-0.569,0.481-0.957l-4.713-2.721
		c-0.757-0.443-0.57-0.513-1.182,0.546l-2.253,3.9c-0.233,0.392-0.408,0.474-0.052,0.7C77.526,40.73,78.497,41.356,78.783,41.354z"
		/>
	<path fill="#1A363C" d="M107.531,48.617c0.272-0.012,0.054,0.08,0.272-0.182c0.014-0.021,0.131-0.238,0.154-0.277
		c0.067-0.434,0.465-0.931,0.696-1.331l-3.542-2.021l-4.077,7.069l1.736,1.006l3.076-5.271
		C106.258,47.762,107.211,48.318,107.531,48.617z"/>
	<path fill="#1A363C" d="M100.677,27.993c0.315-0.545,0.759-1.193,0.916-1.711l-3.482-2.01l-1,1.708L100.677,27.993z"/>
	<path fill="#1A363C" d="M107.531,48.617c0.088,0.374-0.854,1.322-0.844,1.719c0.005,0.212,1.44,0.847,1.671,1.113
		c0.365,0.344,1.296,0.793,1.775,1.071l-3.439,5.958l3.502-6.066l-1.733-1c0.16-0.272,0.209-0.492,0.415-0.844
		c0.179-0.307,0.354-0.614,0.532-0.922c-1.927-1.112-1.827-0.834-1.452-1.488c-0.023,0.039-0.141,0.26-0.154,0.277
		C107.585,48.697,107.803,48.605,107.531,48.617z"/>
	<path fill="#1A363C" d="M95.307,25.033l1.722,0.976l-11.19,19.413l-1.742-1.006l0.064,0.082c0.015,0.019,1.13,0.801,1.69,0.965
		L97.089,26.04l3.528,2.017c-2.921,5.048-5.963,10.392-8.932,15.401c-0.105,0.184-0.232,0.338-0.228,0.521l9.193-15.858l0.025-0.129
		l-3.566-2.013l1-1.708c-0.269,0.188-0.815,1.322-1.04,1.711l-1.621-0.925C95.331,25.016,95.384,25.032,95.307,25.033z"/>
	<path fill="#1A363C" d="M166.506,44.341h-6.022l4.965-17.146L155.25,44.341h-6.195l-1.111-17.394l-4.243,17.394h-6.195
		l6.993-26.099h8.454l1.164,18.313l10.93-18.313h8.454L166.506,44.341z M189.025,44.341h-13.467c-1.875,0-3.223-0.502-4.042-1.506
		c-0.85-0.979-1.017-2.403-0.512-4.29c0.604-2.252,1.646-3.872,3.128-4.852c1.481-0.98,3.585-1.47,6.315-1.47h5.943
		c0.252-0.938,0.152-1.607-0.281-2.021c-0.457-0.376-1.465-0.562-3.012-0.562h-8.483l1.258-4.696h10.319
		c2.623,0,4.455,0.609,5.492,1.822c1.043,1.213,1.229,3.053,0.565,5.521L189.025,44.341z M184.385,39.716l0.777-2.899h-5.264
		c-1.057,0-1.76,0.102-2.125,0.305c-0.371,0.203-0.646,0.627-0.813,1.273c-0.128,0.478-0.112,0.819,0.049,1.045
		c0.095,0.096,0.285,0.162,0.583,0.21c0.299,0.048,0.688,0.066,1.164,0.066H184.385z M210.04,44.341h-5.735l3.116-11.633
		c0.331-1.232,0.368-2.02,0.106-2.355c-0.301-0.31-1.008-0.454-2.104-0.454h-3.45l-3.871,14.443h-5.734l5.195-19.395h9.535
		c2.916,0,4.844,0.567,5.778,1.703c0.938,1.142,1.065,2.97,0.394,5.503L210.04,44.341z M230.904,44.341h-5.771l3.122-11.646
		c0.31-1.153,0.325-1.906,0.041-2.252c-0.19-0.204-0.427-0.352-0.706-0.442c-0.311-0.089-0.77-0.138-1.361-0.138l-3.427,0.036
		l-3.87,14.443h-5.736l6.992-26.099h5.736l-1.797,6.704h3.837c2.867,0,4.784,0.562,5.752,1.679c0.966,1.123,1.107,2.958,0.423,5.52
		L230.904,44.341z M252.916,44.341h-13.468c-1.87,0-3.218-0.502-4.042-1.506c-0.85-0.979-1.016-2.403-0.512-4.29
		c0.604-2.252,1.646-3.872,3.129-4.852c1.479-0.98,3.584-1.47,6.313-1.47h5.945c0.251-0.938,0.154-1.607-0.283-2.021
		c-0.455-0.376-1.463-0.562-3.01-0.562h-8.484l1.26-4.696h10.316c2.624,0,4.456,0.609,5.493,1.822
		c1.043,1.213,1.229,3.053,0.569,5.521L252.916,44.341z M248.275,39.716l0.773-2.899h-5.264c-1.057,0-1.764,0.102-2.125,0.305
		c-0.371,0.203-0.645,0.627-0.813,1.273c-0.131,0.478-0.113,0.819,0.049,1.045c0.096,0.096,0.285,0.162,0.582,0.21
		c0.299,0.048,0.688,0.066,1.164,0.066H248.275z M262.135,44.341h-5.951l6.994-26.099h5.95L262.135,44.341z M275.577,44.341h-5.056
		l1.422-5.307h5.056L275.577,44.341z M294.141,44.341h-7.009c-0.856,0-1.632-0.049-2.304-0.144c-0.66-0.093-1.273-0.206-1.816-0.4
		c-0.979-0.353-1.818-0.972-2.492-1.817c-0.313-0.396-0.533-0.902-0.729-1.475c-0.191-0.553-0.396-1.145-0.49-1.782
		c-0.09-0.616-0.08-1.261-0.029-1.912c0.049-0.643,0.188-1.354,0.396-2.121c0.387-1.444,0.986-2.813,1.813-4.081
		c0.813-1.25,1.783-2.411,2.996-3.375c1.004-0.801,2.187-1.325,3.438-1.703c1.246-0.377,2.719-0.58,4.422-0.58h7.008l-1.306,4.875
		h-5.596c-1.159,0-2.123,0.056-2.854,0.209c-0.733,0.154-1.336,0.479-1.838,0.86c-0.976,0.734-1.726,1.986-2.205,3.794
		c-0.269,1.002-0.301,1.854-0.16,2.557c0.138,0.682,0.322,1.457,0.976,1.715l1.027,0.406c0.279,0.111,0.612,0.08,0.928,0.103
		c0.334,0.021,0.849,0.035,1.533,0.035h5.592L294.141,44.341z M318.156,34.614c-0.811,3.032-2.389,5.46-4.719,7.283
		c-2.322,1.813-5.026,2.729-8.117,2.729c-3.105,0-5.316-0.922-6.676-2.729c-1.354-1.796-1.642-4.214-0.815-7.283
		c0.804-3.004,2.383-5.426,4.712-7.26c2.303-1.813,5.01-2.73,8.141-2.73c3.09,0,5.313,0.898,6.664,2.695
		C318.704,29.127,318.971,31.564,318.156,34.614z M312.205,34.614c0.429-1.61,0.344-2.863-0.174-3.788
		c-0.498-0.89-1.362-1.362-2.684-1.362c-1.313,0-2.435,0.479-3.412,1.362c-0.94,0.854-1.67,2.104-2.119,3.788
		c-0.23,0.864-0.325,1.597-0.323,2.188c0.002,0.626,0.125,1.186,0.397,1.656c0.506,0.889,1.402,1.327,2.688,1.327
		c1.316,0,2.439-0.46,3.4-1.327C311.008,37.539,311.764,36.265,312.205,34.614z M344.743,44.341h-5.771l3.104-11.598
		c0.314-1.188,0.4-2.017,0.134-2.396c-0.265-0.369-1.003-0.534-2.08-0.513l-2.233,0.059l-3.871,14.443h-5.844l3.871-14.443h-4.771
		l-3.871,14.443h-5.771l5.193-19.395h19.016c2.768,0,4.656,0.569,5.66,1.703c1.008,1.14,1.176,2.973,0.496,5.503L344.743,44.341z"/>
	<path opacity="0.3" fill="#1A363C" enable-background="new    " d="M6.553,25.047l50.538-5.334
		c0.586-0.061,1.173-0.031,1.742,0.063c1.26,0.22,2.438,0.808,3.337,1.613c0.917,0.817,1.553,1.876,1.704,3.011
		c0.06,0.448,0.045,0.909-0.058,1.372l-8.744,22.963c-0.35,1.576-1.126,3.041-2.301,4.084c-1.105,0.979-2.542,1.59-4.289,1.59
		H13.654c-1.74,0-3.169-0.604-4.27-1.585L9.38,52.822c-1.174-1.043-1.949-2.506-2.311-4.078l-6.966-17.63
		c-0.032-0.14-0.055-0.26-0.068-0.361c-0.201-1.501,0.503-2.794,1.681-3.775c1.078-0.903,2.576-1.542,4.104-1.818
		C6.086,25.107,6.331,25.07,6.553,25.047z M53.649,24.794L6.519,29.77c-0.188,0.02-0.359,0.043-0.507,0.065
		c-1.052,0.19-2.068,0.618-2.784,1.223c-0.624,0.521-1,1.18-0.902,1.906c0.011,0.076,0.021,0.142,0.029,0.185l6.468,15.46
		c0.257,1.117,0.786,2.138,1.572,2.836c0.638,0.563,1.462,0.916,2.465,0.916h32.48c1.005,0,1.835-0.354,2.476-0.922
		c0.783-0.696,1.311-1.711,1.558-2.822l8.183-20.434c0.051-0.231,0.059-0.463,0.028-0.689c-0.084-0.622-0.447-1.214-0.975-1.688
		c-0.545-0.488-1.252-0.849-2.001-0.979C54.292,24.775,53.968,24.761,53.649,24.794z"/>
	<path fill="#1A363C" d="M148.935,10.044l-1.074,4.017h-1.445l2.876-10.733h3.166c0.679,0,1.249,0.08,1.708,0.237
		c0.46,0.152,0.814,0.379,1.066,0.668c0.251,0.29,0.404,0.641,0.457,1.05c0.053,0.41,0.01,0.866-0.125,1.37
		c-0.135,0.502-0.345,0.958-0.63,1.373c-0.286,0.414-0.636,0.771-1.054,1.073c-0.417,0.299-0.898,0.526-1.442,0.694
		c-0.543,0.167-1.138,0.252-1.781,0.252L148.935,10.044L148.935,10.044z M149.245,8.891h1.721c0.415,0,0.796-0.06,1.143-0.165
		c0.346-0.11,0.652-0.27,0.919-0.461c0.268-0.197,0.493-0.437,0.676-0.706c0.184-0.274,0.319-0.577,0.407-0.906
		c0.184-0.684,0.117-1.218-0.202-1.602c-0.318-0.389-0.905-0.576-1.759-0.576h-1.722L149.245,8.891z"/>
	<path id="_x31_" fill="#1A363C" d="M160.111,6.354c0.554,0,1.031,0.092,1.428,0.272c0.397,0.188,0.706,0.446,0.928,0.786
		c0.221,0.339,0.351,0.749,0.389,1.23c0.038,0.479-0.024,1.021-0.183,1.611c-0.161,0.602-0.388,1.141-0.684,1.615
		c-0.295,0.479-0.645,0.893-1.047,1.229c-0.403,0.339-0.852,0.599-1.348,0.778c-0.495,0.185-1.021,0.272-1.575,0.272
		c-0.554,0-1.028-0.092-1.426-0.272c-0.398-0.184-0.71-0.438-0.934-0.778c-0.224-0.341-0.355-0.749-0.397-1.229
		c-0.041-0.479,0.019-1.018,0.179-1.615c0.159-0.595,0.389-1.135,0.688-1.611c0.299-0.482,0.65-0.896,1.056-1.23
		c0.406-0.339,0.857-0.601,1.354-0.786C159.034,6.446,159.557,6.354,160.111,6.354z M158.299,13.12c0.748,0,1.375-0.252,1.878-0.753
		c0.504-0.501,0.876-1.203,1.117-2.104c0.242-0.903,0.246-1.606,0.013-2.113c-0.234-0.504-0.726-0.756-1.474-0.756
		c-0.379,0-0.727,0.063-1.041,0.19c-0.313,0.134-0.596,0.317-0.849,0.563s-0.474,0.547-0.661,0.903
		c-0.188,0.354-0.344,0.761-0.464,1.21c-0.12,0.445-0.181,0.854-0.184,1.208c-0.003,0.354,0.057,0.648,0.179,0.896
		s0.305,0.427,0.549,0.563C157.607,13.055,157.919,13.12,158.299,13.12z"/>
	<path id="_x32_" fill="#1A363C" d="M164.347,6.466h1.048c0.11,0,0.192,0.027,0.248,0.082c0.055,0.06,0.085,0.12,0.09,0.195
		l0.143,4.885c-0.008,0.185-0.018,0.354-0.027,0.521c-0.01,0.167-0.024,0.334-0.046,0.507c0.086-0.172,0.176-0.339,0.271-0.507
		c0.095-0.167,0.194-0.341,0.297-0.521l2.919-4.916c0.045-0.07,0.106-0.137,0.183-0.187c0.075-0.05,0.159-0.075,0.255-0.075h0.576
		c0.1,0,0.175,0.025,0.227,0.075c0.052,0.05,0.08,0.112,0.085,0.187l0.247,4.916c0.008,0.179,0.012,0.352,0.009,0.521
		c-0.003,0.169-0.008,0.336-0.013,0.504c0.07-0.167,0.148-0.339,0.236-0.521c0.088-0.18,0.176-0.347,0.262-0.501l2.791-4.885
		c0.047-0.08,0.111-0.145,0.195-0.197c0.084-0.052,0.173-0.078,0.269-0.078h1.003l-4.489,7.593h-1.055
		c-0.13,0-0.197-0.085-0.202-0.255l-0.297-5.147c-0.01-0.115-0.011-0.23-0.004-0.349c0.007-0.118,0.012-0.232,0.019-0.352
		c-0.057,0.115-0.112,0.232-0.17,0.354c-0.057,0.12-0.12,0.232-0.191,0.352l-3.076,5.145c-0.101,0.17-0.226,0.255-0.375,0.255
		h-1.003L164.347,6.466z"/>
	<path id="_x33_" fill="#1A363C" d="M179.837,6.346c0.454,0,0.853,0.072,1.195,0.229c0.342,0.153,0.616,0.372,0.819,0.659
		c0.197,0.287,0.321,0.644,0.371,1.063c0.043,0.427-0.013,0.903-0.154,1.445c-0.055,0.209-0.114,0.354-0.18,0.419
		c-0.063,0.07-0.156,0.105-0.281,0.105h-5.045c-0.119,0.479-0.166,0.896-0.146,1.252c0.021,0.354,0.106,0.646,0.255,0.891
		c0.146,0.237,0.352,0.414,0.605,0.531c0.259,0.118,0.563,0.177,0.927,0.177c0.334,0,0.634-0.04,0.896-0.117
		s0.494-0.162,0.689-0.252c0.199-0.09,0.368-0.172,0.506-0.25c0.141-0.08,0.249-0.117,0.334-0.117c0.109,0,0.186,0.042,0.223,0.132
		L181.1,13c-0.218,0.197-0.461,0.369-0.729,0.521c-0.27,0.146-0.546,0.267-0.833,0.357c-0.286,0.097-0.578,0.165-0.87,0.212
		c-0.292,0.052-0.575,0.07-0.852,0.07c-0.522,0-0.979-0.09-1.375-0.267c-0.396-0.182-0.707-0.438-0.938-0.778
		c-0.229-0.342-0.367-0.766-0.414-1.27c-0.044-0.509,0.021-1.083,0.197-1.739c0.144-0.529,0.354-1.023,0.644-1.482
		c0.283-0.459,0.625-0.854,1.021-1.19s0.837-0.604,1.326-0.793C178.768,6.444,179.287,6.346,179.837,6.346z M179.602,7.334
		c-0.645,0-1.199,0.188-1.67,0.561c-0.468,0.364-0.834,0.883-1.101,1.54h4.124c0.083-0.313,0.115-0.596,0.1-0.851
		c-0.016-0.257-0.08-0.479-0.195-0.664c-0.11-0.187-0.271-0.332-0.481-0.434C180.165,7.384,179.906,7.334,179.602,7.334z"/>
	<path id="_x34_" fill="#1A363C" d="M182.613,14.056l2.033-7.595h0.765c0.146,0,0.235,0.029,0.274,0.092
		c0.041,0.058,0.051,0.155,0.027,0.302l-0.242,1.257c0.405-0.563,0.85-0.998,1.313-1.31c0.466-0.314,0.953-0.476,1.469-0.476
		c0.209,0,0.395,0.025,0.549,0.072c0.157,0.05,0.297,0.117,0.417,0.205L188.779,7.6c-0.068,0.125-0.162,0.188-0.281,0.188
		c-0.068,0-0.171-0.021-0.305-0.068c-0.131-0.052-0.326-0.069-0.588-0.069c-0.463,0-0.89,0.14-1.273,0.421s-0.759,0.691-1.111,1.228
		l-1.271,4.763L182.613,14.056L182.613,14.056z"/>
	<path id="_x35_" fill="#1A363C" d="M193.714,6.346c0.454,0,0.853,0.072,1.196,0.229c0.343,0.152,0.615,0.372,0.818,0.659
		s0.326,0.644,0.371,1.063c0.043,0.427-0.013,0.903-0.152,1.445c-0.057,0.209-0.116,0.354-0.18,0.419
		c-0.063,0.07-0.158,0.105-0.283,0.105h-5.045c-0.119,0.479-0.166,0.896-0.146,1.252c0.021,0.354,0.106,0.646,0.261,0.891
		c0.146,0.237,0.348,0.414,0.604,0.531c0.258,0.118,0.564,0.177,0.926,0.177c0.334,0,0.635-0.04,0.896-0.117
		c0.263-0.077,0.492-0.162,0.688-0.252c0.198-0.09,0.367-0.172,0.507-0.25c0.14-0.08,0.247-0.117,0.332-0.117
		c0.109,0,0.187,0.042,0.224,0.132L194.977,13c-0.218,0.197-0.461,0.369-0.729,0.521c-0.27,0.146-0.547,0.267-0.834,0.357
		c-0.286,0.097-0.577,0.165-0.869,0.212c-0.293,0.052-0.576,0.07-0.852,0.07c-0.522,0-0.98-0.09-1.375-0.267
		c-0.396-0.182-0.707-0.438-0.938-0.778c-0.229-0.342-0.366-0.766-0.413-1.27c-0.045-0.509,0.021-1.083,0.196-1.739
		c0.144-0.529,0.354-1.023,0.644-1.482c0.284-0.459,0.625-0.854,1.021-1.19s0.837-0.604,1.326-0.793
		C192.645,6.444,193.165,6.346,193.714,6.346z M193.479,7.334c-0.645,0-1.199,0.188-1.668,0.561c-0.47,0.364-0.836,0.883-1.103,1.54
		h4.125c0.082-0.313,0.116-0.596,0.099-0.851c-0.016-0.257-0.08-0.479-0.195-0.664c-0.11-0.187-0.271-0.332-0.48-0.434
		C194.042,7.384,193.783,7.334,193.479,7.334z"/>
	<path id="_x36_" fill="#1A363C" d="M201.828,14.056c-0.189,0-0.285-0.098-0.285-0.277l0.127-0.92
		c-0.431,0.394-0.884,0.708-1.363,0.945c-0.479,0.232-0.992,0.354-1.531,0.354c-0.434,0-0.805-0.085-1.11-0.252
		s-0.545-0.412-0.708-0.736c-0.162-0.322-0.246-0.729-0.251-1.215c-0.005-0.479,0.073-1.041,0.246-1.672
		c0.146-0.559,0.358-1.078,0.644-1.562c0.278-0.481,0.606-0.898,0.984-1.258c0.377-0.354,0.793-0.633,1.251-0.833
		c0.459-0.199,0.94-0.306,1.459-0.306c0.464,0,0.84,0.08,1.127,0.237s0.521,0.377,0.706,0.661l1.127-4.207h1.332l-2.956,11.031
		h-0.795L201.828,14.056L201.828,14.056z M199.506,13.083c0.436,0,0.844-0.1,1.225-0.299c0.379-0.199,0.754-0.479,1.127-0.846
		l0.982-3.672c-0.154-0.33-0.359-0.563-0.617-0.694c-0.256-0.132-0.563-0.2-0.916-0.2c-0.709,0-1.32,0.252-1.836,0.759
		c-0.515,0.509-0.896,1.228-1.146,2.158c-0.134,0.494-0.204,0.918-0.214,1.271c-0.01,0.352,0.037,0.642,0.142,0.868
		c0.104,0.228,0.263,0.395,0.474,0.5C198.936,13.03,199.195,13.083,199.506,13.083z"/>
	<path id="_x37_" fill="#1A363C" d="M207.794,14.056l2.956-11.033h1.34l-1.236,4.616c0.418-0.392,0.863-0.701,1.334-0.938
		c0.475-0.237,0.965-0.354,1.488-0.354c0.439,0,0.814,0.083,1.125,0.247c0.311,0.16,0.545,0.407,0.707,0.733
		c0.162,0.327,0.246,0.731,0.252,1.213c0.006,0.484-0.076,1.038-0.244,1.667c-0.146,0.563-0.365,1.081-0.645,1.564
		c-0.278,0.479-0.604,0.896-0.98,1.25c-0.377,0.352-0.795,0.629-1.256,0.831s-0.947,0.304-1.455,0.304
		c-0.49,0-0.879-0.095-1.17-0.287c-0.289-0.188-0.519-0.456-0.682-0.798l-0.253,0.694c-0.093,0.188-0.231,0.287-0.421,0.287
		L207.794,14.056L207.794,14.056z M212.957,7.409c-0.434,0-0.841,0.105-1.225,0.317c-0.383,0.209-0.771,0.509-1.146,0.893
		l-0.969,3.616c0.148,0.324,0.355,0.554,0.611,0.686c0.26,0.138,0.563,0.2,0.922,0.2c0.711,0,1.32-0.252,1.838-0.756
		c0.515-0.504,0.896-1.223,1.146-2.156c0.136-0.494,0.203-0.918,0.214-1.271c0.008-0.354-0.041-0.646-0.146-0.873
		c-0.104-0.229-0.265-0.396-0.476-0.497C213.52,7.461,213.261,7.409,212.957,7.409z"/>
	<path id="_x38_" fill="#1A363C" d="M217.544,16.302c-0.071,0.1-0.147,0.18-0.231,0.235c-0.084,0.063-0.191,0.089-0.336,0.089
		h-0.983l2.179-2.964l-1.199-7.188h1.15c0.111,0,0.191,0.025,0.246,0.087c0.05,0.057,0.076,0.122,0.091,0.188l0.729,4.838
		c0.02,0.11,0.024,0.227,0.027,0.332c0.002,0.113-0.001,0.229-0.007,0.347c0.063-0.115,0.132-0.229,0.195-0.347
		c0.063-0.104,0.136-0.225,0.212-0.339l3.263-4.83c0.054-0.08,0.122-0.146,0.208-0.195c0.087-0.057,0.171-0.08,0.256-0.08h1.063
		L217.544,16.302z"/>
	<path id="_x39_" fill="#1A363C" d="M223.672,13.235c0.035-0.129,0.094-0.252,0.171-0.367c0.078-0.115,0.171-0.214,0.275-0.302
		c0.104-0.085,0.22-0.152,0.349-0.202s0.258-0.075,0.387-0.075c0.131,0,0.246,0.025,0.352,0.075s0.186,0.117,0.24,0.202
		c0.063,0.087,0.104,0.187,0.119,0.302c0.021,0.115,0.006,0.237-0.024,0.367c-0.036,0.137-0.097,0.26-0.17,0.374
		c-0.077,0.113-0.175,0.21-0.279,0.297c-0.104,0.084-0.229,0.15-0.354,0.197c-0.127,0.047-0.256,0.067-0.387,0.067
		s-0.244-0.021-0.348-0.067s-0.184-0.112-0.242-0.197c-0.059-0.087-0.098-0.185-0.113-0.297
		C223.627,13.495,223.635,13.372,223.672,13.235z M225.176,7.621c0.035-0.13,0.094-0.252,0.172-0.367
		c0.077-0.11,0.17-0.214,0.274-0.302c0.104-0.085,0.221-0.152,0.349-0.202c0.129-0.05,0.258-0.075,0.387-0.075
		c0.131,0,0.246,0.025,0.352,0.075s0.188,0.117,0.245,0.202c0.063,0.087,0.104,0.188,0.114,0.302
		c0.021,0.115,0.012,0.237-0.023,0.367c-0.037,0.137-0.092,0.259-0.171,0.375c-0.077,0.112-0.17,0.209-0.279,0.297
		c-0.104,0.085-0.224,0.149-0.354,0.197c-0.128,0.048-0.257,0.073-0.386,0.073c-0.131,0-0.246-0.025-0.35-0.073
		c-0.104-0.047-0.184-0.112-0.24-0.197c-0.061-0.087-0.1-0.185-0.115-0.297C225.132,7.88,225.139,7.758,225.176,7.621z"/>
	<path fill="#1A363C" d="M240.584,50.027l-0.336,1.252h-5.447l-1.011,3.77h4.411l-0.322,1.203h-4.411l-1.04,3.881h5.448
		l-0.335,1.251h-6.993l3.044-11.354L240.584,50.027L240.584,50.027z M240.598,56.031h3.912l-0.322,1.203h-3.912L240.598,56.031z
		 M247.131,60.084h4.91l-0.35,1.299h-6.445l3.043-11.354h1.536L247.131,60.084z M258.241,53.226c0.479,0,0.901,0.082,1.266,0.244
		c0.363,0.155,0.652,0.393,0.867,0.691c0.214,0.309,0.345,0.686,0.392,1.127c0.047,0.446-0.008,0.956-0.16,1.528
		c-0.061,0.223-0.123,0.369-0.188,0.443c-0.064,0.069-0.167,0.106-0.299,0.106h-5.342c-0.125,0.507-0.174,0.95-0.146,1.325
		c0.021,0.377,0.116,0.688,0.271,0.942c0.154,0.25,0.367,0.438,0.644,0.563c0.271,0.123,0.603,0.188,0.979,0.188
		c0.354,0,0.67-0.044,0.947-0.125c0.275-0.081,0.521-0.173,0.729-0.271c0.21-0.096,0.389-0.183,0.532-0.265
		c0.146-0.085,0.266-0.124,0.354-0.124c0.116,0,0.19,0.045,0.231,0.135l0.259,0.521c-0.229,0.209-0.487,0.392-0.771,0.548
		c-0.285,0.151-0.578,0.277-0.885,0.382c-0.303,0.098-0.609,0.175-0.921,0.225c-0.312,0.053-0.606,0.073-0.896,0.073
		c-0.558,0-1.039-0.094-1.455-0.281c-0.418-0.187-0.748-0.463-0.989-0.82c-0.243-0.36-0.392-0.813-0.438-1.348
		c-0.048-0.53,0.021-1.146,0.209-1.84c0.148-0.56,0.377-1.082,0.678-1.565c0.306-0.483,0.66-0.905,1.078-1.267
		c0.418-0.354,0.89-0.637,1.404-0.84C257.109,53.33,257.661,53.226,258.241,53.226z M257.993,54.272
		c-0.681,0-1.271,0.19-1.767,0.589c-0.494,0.391-0.888,0.935-1.164,1.629h4.359c0.092-0.328,0.122-0.626,0.104-0.896
		c-0.019-0.271-0.088-0.512-0.209-0.702c-0.118-0.197-0.289-0.354-0.514-0.459C258.589,54.325,258.314,54.272,257.993,54.272z
		 M267.07,61.383h-0.625c-0.137,0-0.241-0.021-0.314-0.063c-0.072-0.042-0.104-0.135-0.094-0.271l0.042-0.742
		c-0.263,0.188-0.515,0.356-0.755,0.513c-0.242,0.147-0.487,0.279-0.736,0.382c-0.249,0.104-0.506,0.183-0.771,0.235
		c-0.264,0.052-0.551,0.079-0.854,0.079c-0.313,0-0.59-0.05-0.838-0.137c-0.249-0.088-0.451-0.22-0.604-0.394
		c-0.152-0.175-0.254-0.396-0.303-0.665c-0.048-0.267-0.021-0.584,0.075-0.95c0.085-0.314,0.255-0.626,0.507-0.919
		c0.256-0.296,0.604-0.557,1.059-0.787c0.449-0.227,1.007-0.414,1.672-0.559c0.669-0.146,1.457-0.22,2.363-0.22l0.17-0.636
		c0.168-0.626,0.162-1.101-0.021-1.42c-0.183-0.317-0.532-0.479-1.058-0.479c-0.344,0-0.646,0.043-0.898,0.129
		c-0.259,0.088-0.486,0.186-0.688,0.293c-0.198,0.104-0.375,0.207-0.521,0.294s-0.279,0.132-0.4,0.132
		c-0.099,0-0.172-0.021-0.229-0.074c-0.06-0.05-0.103-0.106-0.122-0.185l-0.137-0.443c0.563-0.431,1.123-0.753,1.691-0.966
		c0.567-0.215,1.166-0.32,1.787-0.32c0.448,0,0.826,0.074,1.139,0.228c0.311,0.146,0.547,0.354,0.713,0.616
		c0.166,0.265,0.263,0.583,0.281,0.962c0.021,0.375-0.029,0.782-0.146,1.23L267.07,61.383z M263.646,60.512
		c0.248,0,0.479-0.023,0.701-0.073c0.219-0.051,0.432-0.119,0.639-0.212c0.207-0.089,0.41-0.2,0.611-0.333
		c0.197-0.129,0.397-0.276,0.604-0.443l0.443-1.662c-0.647,0-1.213,0.042-1.688,0.123c-0.479,0.082-0.874,0.188-1.192,0.322
		c-0.32,0.133-0.565,0.288-0.746,0.468c-0.18,0.179-0.297,0.38-0.354,0.604c-0.06,0.211-0.071,0.393-0.044,0.547
		c0.025,0.147,0.087,0.274,0.176,0.377c0.094,0.098,0.209,0.168,0.354,0.214C263.297,60.489,263.461,60.512,263.646,60.512z
		 M269.21,61.383l2.151-8.025h0.808c0.153,0,0.251,0.032,0.292,0.093c0.042,0.063,0.053,0.169,0.033,0.319l-0.262,1.33
		c0.435-0.599,0.896-1.061,1.391-1.391c0.493-0.332,1.01-0.499,1.554-0.499c0.222,0,0.415,0.027,0.582,0.077
		c0.165,0.053,0.313,0.124,0.44,0.216l-0.465,1.059c-0.072,0.132-0.172,0.193-0.299,0.193c-0.074,0-0.185-0.021-0.319-0.071
		c-0.14-0.056-0.347-0.074-0.621-0.074c-0.491,0-0.94,0.146-1.351,0.44c-0.41,0.304-0.808,0.731-1.181,1.304l-1.353,5.029H269.21z
		 M275.593,61.383l2.151-8.025h0.84c0.2,0,0.301,0.098,0.301,0.293l-0.123,0.874c0.452-0.393,0.928-0.699,1.422-0.938
		c0.492-0.233,1.021-0.354,1.586-0.354c0.438,0,0.812,0.072,1.104,0.22c0.296,0.146,0.521,0.353,0.674,0.618
		s0.235,0.588,0.252,0.963s-0.036,0.789-0.157,1.243l-1.371,5.111h-1.41l1.371-5.111c0.162-0.606,0.15-1.079-0.032-1.415
		c-0.188-0.335-0.567-0.504-1.142-0.504c-0.416,0-0.83,0.101-1.246,0.301c-0.416,0.201-0.823,0.476-1.224,0.818l-1.585,5.91
		L275.593,61.383L275.593,61.383z M288.118,53.353l-2.151,8.025h-1.41l2.152-8.025H288.118z M289.109,50.835
		c-0.036,0.142-0.098,0.269-0.188,0.388c-0.088,0.113-0.188,0.225-0.307,0.313c-0.119,0.089-0.245,0.166-0.386,0.219
		c-0.135,0.058-0.271,0.08-0.404,0.08c-0.143,0-0.262-0.022-0.361-0.08c-0.104-0.053-0.188-0.127-0.259-0.219
		s-0.108-0.198-0.136-0.313c-0.021-0.119-0.016-0.246,0.021-0.388c0.035-0.138,0.098-0.27,0.186-0.394
		c0.089-0.124,0.188-0.232,0.309-0.325c0.117-0.092,0.242-0.163,0.375-0.217c0.137-0.053,0.271-0.078,0.402-0.078
		c0.136,0,0.261,0.025,0.363,0.078c0.107,0.054,0.197,0.125,0.27,0.217c0.063,0.093,0.107,0.201,0.135,0.325
		S289.146,50.698,289.109,50.835z M288.453,61.383l2.152-8.025h0.838c0.201,0,0.302,0.098,0.303,0.293l-0.123,0.874
		c0.452-0.393,0.927-0.699,1.421-0.938c0.493-0.233,1.021-0.354,1.586-0.354c0.438,0,0.808,0.072,1.103,0.22
		c0.301,0.146,0.521,0.353,0.68,0.618c0.148,0.266,0.23,0.588,0.251,0.963c0.019,0.375-0.037,0.789-0.159,1.243l-1.37,5.111h-1.405
		l1.369-5.111c0.159-0.606,0.149-1.079-0.033-1.415c-0.188-0.335-0.567-0.504-1.143-0.504c-0.417,0-0.832,0.101-1.247,0.301
		c-0.416,0.201-0.819,0.476-1.223,0.818l-1.585,5.91L288.453,61.383L288.453,61.383z M302.145,53.226
		c0.354,0,0.666,0.037,0.949,0.109c0.283,0.076,0.526,0.19,0.735,0.343h2.178l-0.141,0.521c-0.048,0.175-0.188,0.288-0.423,0.336
		l-0.944,0.127c0.088,0.343,0.074,0.729-0.038,1.148c-0.105,0.391-0.273,0.746-0.511,1.063c-0.235,0.319-0.519,0.599-0.847,0.82
		c-0.326,0.229-0.689,0.401-1.09,0.521c-0.398,0.119-0.818,0.184-1.262,0.184c-0.375,0-0.717-0.045-1.021-0.132
		c-0.197,0.104-0.355,0.225-0.479,0.351c-0.12,0.125-0.196,0.248-0.229,0.367c-0.053,0.197-0.018,0.346,0.108,0.446
		c0.126,0.1,0.312,0.174,0.554,0.216c0.239,0.045,0.521,0.063,0.849,0.063c0.319,0,0.647,0,0.983,0s0.654,0.028,0.961,0.09
		c0.31,0.063,0.567,0.152,0.785,0.289c0.219,0.135,0.373,0.314,0.463,0.555c0.09,0.229,0.084,0.541-0.018,0.916
		c-0.094,0.346-0.27,0.684-0.523,1.008c-0.262,0.328-0.586,0.615-0.978,0.871c-0.392,0.254-0.838,0.457-1.343,0.604
		c-0.508,0.152-1.053,0.229-1.639,0.229s-1.082-0.061-1.492-0.175c-0.408-0.115-0.733-0.271-0.976-0.471
		c-0.237-0.192-0.396-0.423-0.472-0.679c-0.075-0.257-0.078-0.522-0.003-0.806c0.104-0.396,0.319-0.731,0.646-1.011
		c0.325-0.277,0.729-0.498,1.211-0.66c-0.199-0.105-0.343-0.245-0.431-0.424c-0.088-0.181-0.093-0.41-0.015-0.708
		c0.029-0.111,0.084-0.233,0.158-0.356c0.073-0.122,0.176-0.246,0.295-0.367c0.117-0.119,0.256-0.232,0.41-0.346
		c0.154-0.111,0.33-0.209,0.521-0.293c-0.336-0.226-0.563-0.521-0.688-0.887c-0.125-0.367-0.123-0.802,0.01-1.291
		c0.104-0.396,0.272-0.744,0.513-1.066c0.235-0.32,0.521-0.594,0.849-0.818c0.33-0.225,0.697-0.396,1.104-0.521
		C301.279,53.288,301.702,53.226,302.145,53.226z M302.35,61.8c0.055-0.2,0.045-0.364-0.033-0.488
		c-0.073-0.124-0.198-0.225-0.375-0.288c-0.172-0.066-0.377-0.116-0.613-0.148c-0.238-0.033-0.496-0.05-0.771-0.05
		c-0.274,0-0.556,0-0.841,0c-0.282,0-0.548-0.034-0.786-0.104c-0.341,0.145-0.63,0.314-0.871,0.521
		c-0.242,0.206-0.4,0.451-0.479,0.736c-0.053,0.18-0.046,0.35,0.005,0.505s0.149,0.29,0.313,0.398
		c0.16,0.113,0.375,0.203,0.646,0.271s0.603,0.101,0.989,0.101c0.38,0,0.729-0.029,1.05-0.104c0.315-0.069,0.604-0.169,0.849-0.299
		c0.24-0.129,0.439-0.282,0.602-0.459C302.186,62.209,302.293,62.014,302.35,61.8z M301.008,57.471c0.285,0,0.551-0.04,0.79-0.118
		c0.24-0.08,0.452-0.19,0.638-0.333c0.188-0.146,0.344-0.313,0.475-0.518c0.128-0.195,0.223-0.416,0.283-0.651
		c0.136-0.492,0.093-0.883-0.131-1.181c-0.222-0.285-0.617-0.436-1.188-0.436c-0.564,0-1.034,0.146-1.41,0.436
		c-0.377,0.298-0.632,0.688-0.764,1.181c-0.064,0.235-0.083,0.456-0.061,0.651c0.021,0.199,0.088,0.367,0.194,0.518
		c0.106,0.143,0.265,0.253,0.456,0.333C300.491,57.431,300.729,57.471,301.008,57.471z M319.408,50.011l-0.35,1.299h-3.666
		l-2.697,10.063h-1.535l2.695-10.063h-3.686l0.352-1.299H319.408z M321.452,53.226c0.479,0,0.901,0.082,1.266,0.244
		c0.363,0.155,0.652,0.393,0.867,0.691c0.214,0.309,0.345,0.686,0.392,1.127c0.047,0.446-0.008,0.956-0.16,1.528
		c-0.061,0.223-0.123,0.369-0.188,0.443c-0.064,0.069-0.167,0.106-0.299,0.106h-5.342c-0.125,0.507-0.174,0.95-0.146,1.325
		c0.024,0.377,0.116,0.688,0.271,0.942c0.154,0.25,0.367,0.438,0.644,0.563c0.271,0.123,0.603,0.188,0.979,0.188
		c0.354,0,0.67-0.044,0.949-0.125c0.273-0.081,0.521-0.173,0.729-0.271c0.211-0.096,0.391-0.183,0.536-0.265
		c0.146-0.085,0.263-0.124,0.353-0.124c0.116,0,0.193,0.045,0.233,0.135l0.257,0.521c-0.229,0.209-0.484,0.392-0.771,0.548
		c-0.285,0.151-0.578,0.277-0.883,0.382c-0.304,0.098-0.611,0.175-0.922,0.225c-0.309,0.053-0.607,0.073-0.896,0.073
		c-0.555,0-1.037-0.094-1.452-0.281c-0.419-0.188-0.747-0.463-0.991-0.82c-0.243-0.36-0.393-0.813-0.438-1.348
		c-0.047-0.53,0.021-1.146,0.209-1.84c0.146-0.56,0.377-1.082,0.679-1.565c0.303-0.483,0.659-0.905,1.077-1.267
		c0.419-0.354,0.888-0.637,1.406-0.84C320.32,53.33,320.872,53.226,321.452,53.226z M321.204,54.272
		c-0.681,0-1.271,0.19-1.767,0.589c-0.494,0.391-0.883,0.935-1.164,1.629h4.363c0.088-0.328,0.118-0.626,0.104-0.896
		c-0.018-0.271-0.086-0.512-0.208-0.702c-0.121-0.197-0.291-0.354-0.515-0.459C321.8,54.325,321.525,54.272,321.204,54.272z
		 M330.282,61.383h-0.625c-0.138,0-0.243-0.021-0.315-0.063s-0.104-0.135-0.094-0.271l0.041-0.742
		c-0.262,0.188-0.514,0.356-0.755,0.513c-0.241,0.147-0.486,0.279-0.735,0.382c-0.25,0.104-0.506,0.183-0.771,0.235
		c-0.264,0.052-0.551,0.079-0.854,0.079c-0.313,0-0.59-0.05-0.838-0.137c-0.249-0.088-0.451-0.22-0.604-0.394
		c-0.152-0.175-0.254-0.396-0.301-0.665c-0.05-0.267-0.022-0.584,0.073-0.95c0.085-0.314,0.255-0.626,0.509-0.919
		c0.254-0.296,0.604-0.557,1.057-0.787c0.449-0.227,1.008-0.414,1.675-0.559c0.668-0.146,1.455-0.22,2.36-0.22l0.17-0.636
		c0.168-0.626,0.162-1.101-0.021-1.42c-0.181-0.317-0.53-0.479-1.056-0.479c-0.346,0-0.645,0.043-0.9,0.129
		c-0.259,0.088-0.486,0.186-0.688,0.293c-0.198,0.104-0.375,0.207-0.521,0.294s-0.279,0.132-0.4,0.132
		c-0.1,0-0.172-0.021-0.229-0.074c-0.06-0.05-0.103-0.106-0.122-0.185l-0.135-0.443c0.559-0.431,1.121-0.753,1.689-0.966
		c0.567-0.215,1.166-0.32,1.787-0.32c0.447,0,0.826,0.074,1.139,0.228c0.311,0.146,0.547,0.354,0.713,0.616
		c0.166,0.265,0.263,0.583,0.281,0.962c0.021,0.375-0.027,0.782-0.146,1.23L330.282,61.383z M326.857,60.512
		c0.248,0,0.479-0.023,0.701-0.073c0.219-0.051,0.433-0.119,0.64-0.212c0.206-0.089,0.409-0.2,0.61-0.333
		c0.197-0.129,0.397-0.276,0.604-0.443l0.443-1.662c-0.647,0-1.211,0.042-1.688,0.123c-0.478,0.082-0.874,0.188-1.194,0.322
		c-0.32,0.133-0.564,0.288-0.744,0.468c-0.18,0.179-0.299,0.38-0.354,0.604c-0.06,0.211-0.071,0.393-0.044,0.547
		c0.025,0.147,0.087,0.274,0.176,0.377c0.094,0.098,0.209,0.168,0.354,0.214C326.507,60.489,326.672,60.512,326.857,60.512z
		 M332.421,61.383l2.151-8.025h0.84c0.199,0,0.301,0.098,0.301,0.293l-0.118,0.826c0.394-0.366,0.808-0.664,1.235-0.896
		c0.43-0.229,0.886-0.35,1.371-0.35c0.544,0,0.943,0.146,1.199,0.452c0.254,0.301,0.386,0.707,0.396,1.222
		c0.188-0.29,0.404-0.543,0.644-0.754c0.24-0.212,0.488-0.392,0.754-0.523c0.267-0.137,0.533-0.232,0.81-0.301
		c0.271-0.063,0.54-0.096,0.808-0.096c0.424,0,0.778,0.064,1.072,0.204c0.294,0.134,0.521,0.324,0.686,0.589
		c0.16,0.258,0.25,0.578,0.271,0.955s-0.035,0.811-0.166,1.296l-1.368,5.108h-1.41l1.369-5.108c0.17-0.628,0.159-1.106-0.027-1.436
		c-0.188-0.32-0.543-0.483-1.063-0.483c-0.229,0-0.462,0.043-0.689,0.124c-0.229,0.082-0.446,0.195-0.647,0.354
		c-0.198,0.158-0.377,0.358-0.534,0.604c-0.154,0.235-0.277,0.521-0.363,0.837l-1.369,5.108h-1.409l1.37-5.108
		c0.173-0.646,0.173-1.127-0.002-1.444c-0.174-0.313-0.51-0.475-1.006-0.475c-0.35,0-0.694,0.096-1.043,0.277
		c-0.351,0.188-0.69,0.444-1.026,0.771l-1.604,5.979H332.421z"/>
</g>
</svg>
